<?xml version="1.0" encoding="UTF-8"?>
<svg id="Layer_1" xmlns="http://www.w3.org/2000/svg" version="1.1" viewBox="0 0 126 22">
  <!-- Generator: Adobe Illustrator 30.1.0, SVG Export Plug-In . SVG Version: 2.1.1 Build 136)  -->
  <defs>
    <style>
      .st0 {
        fill: #111;
      }
    </style>
  </defs>
  <path class="st0" d="M7.1,0H0v22h7.1c2.6,0,4-1.4,4-4v-5.1c0-1-.7-1.8-1.7-2h0c1-.2,1.7-1,1.7-2V4C11.1,1.4,9.7,0,7.1,0ZM7.4,17.3c0,.7-.4,1.1-1.1,1.1h-2.5v-5.6h2.5c.7,0,1.1.4,1.1,1.1v3.4h0ZM7.4,8.1c0,.7-.4,1.1-1.1,1.1h-2.5V3.6h2.5c.7,0,1.1.4,1.1,1.1,0,0,0,3.4,0,3.4ZM22.4,14.3c1.3-.6,2-1.8,2-3.6V4C24.4,1.4,23,0,20.4,0h-7.4v22h3.3c0,0,.1,0,.2,0,0,0,.1,0,.1,0s0,0,0-.1c0,0,0-.1,0-.2v-6.9h1.9l1.8,7c0,.2.2.4.5.4h3.4s-.1-.3-.1-.5l-1.9-7.2h0ZM20.6,9.9c0,.7-.4,1.1-1.1,1.1h-2.7V3.6h2.7c.7,0,1.1.4,1.1,1.1v5.2h0ZM36.8,0h.4v3.2c0,.3-.1.5-.4.5h-6.9v5.5h5.3c.3,0,.4.2.4.5v2.7c0,.3-.2.5-.4.5h-5.3v5.6h6.9c.3,0,.4.1.4.4v3.2h-11V0h10.6,0ZM56.1,0h.6v.6c0,0-2.4,20.9-2.4,20.9,0,.2,0,.5,0,.5h-3.2c-.3,0-.5-.2-.6-.5l-2.9-12.4-2.9,12.5c0,.3-.3.5-.6.5h-3.3s0-.3,0-.5L38.4.6c0-.2,0-.6,0-.6h3.2c.3,0,.6.2.6.5l1.1,12.9h.1L46,.5c0-.3.3-.5.6-.5h1.7c.3,0,.5.2.6.5l2.7,12.9h.1l1.1-12.9c0-.3.2-.5.6-.5h2.6ZM65.3,0h-7.1v22h7.1c2.6,0,4-1.4,4-4v-5.1c0-1-.7-1.8-1.7-2h0c1-.2,1.7-1,1.7-2V4C69.3,1.4,67.9,0,65.3,0ZM65.6,17.3c0,.7-.4,1.1-1.1,1.1h-2.5v-5.6h2.5c.7,0,1.1.4,1.1,1.1,0,0,0,3.4,0,3.4ZM65.6,8.1c0,.7-.4,1.1-1.1,1.1h-2.5V3.6h2.5c.7,0,1.1.4,1.1,1.1v3.4h0ZM78.1,0h-3.1c-2.6,0-4,1.4-4,4v14.1c0,2.6,1.4,4,4,4h3.1c2.6,0,4-1.4,4-4V4c0-2.6-1.4-4-4-4h0ZM78.5,17.4c0,.7-.4,1.1-1.1,1.1h-1.6c-.7,0-1.1-.4-1.1-1.1V4.6c0-.7.4-1.1,1.1-1.1h1.6c.7,0,1.1.4,1.1,1.1v12.7s0,0,0,0ZM106.4,0h2.1v22h-3.2c-.1,0-.2,0-.3,0,0,0-.2-.2-.2-.3l-4.2-11.7h-.1v11.7c0,.3-.1.4-.4.4h-3.3V0h3.2c.1,0,.2,0,.3,0,0,0,.2.2.2.3l4.2,11.7h.2V.4c0-.3.1-.4.4-.4h1.2,0ZM117.4,0h-7.1v22h7.1c2.6,0,4-1.4,4-4V4c0-2.6-1.4-4-4-4h0ZM117.7,17.3c0,.7-.4,1.1-1.1,1.1h-2.5V3.6h2.5c.7,0,1.1.4,1.1,1.1v12.5ZM94.2,0h.6v18c0,2.6-1.4,4-4,4h-3.1c-2.6,0-4-1.4-4-4V0h3.2c.1,0,.3,0,.4.2.1.1.2.2.2.4v16.7c0,.7.4,1.1,1.1,1.1h1.4c.7,0,1.1-.4,1.1-1.1V.6c0-.1,0-.3.2-.4s.2-.2.4-.2h2.5ZM124,18.2c-1.1,0-1.9.8-1.9,1.9s.8,1.9,1.9,1.9,1.9-.9,1.9-1.9-.8-1.9-1.9-1.9h0ZM124.1,21.5c-.9,0-1.4-.6-1.4-1.4,0-.8.5-1.4,1.4-1.4s1.4.6,1.4,1.4-.5,1.4-1.4,1.4ZM124.8,20.1c0,0,0-.2,0-.3,0-.3-.3-.6-.7-.6h-.8v2h.5v-.7h.2l.3.7h.6l-.4-.8c0,0,.2-.1.2-.2h0ZM124.3,19.8s0,0,0,0,0,0,0,0c0,0,0,0,0,0h-.2v-.4h.2s0,0,0,0c0,0,0,0,0,0,0,0,0,0,0,0,0,0,0,0,0,0,0,0,0,0,0,0Z"/>
</svg>