<?xml version="1.0" encoding="UTF-8"?>
<svg id="a" xmlns="http://www.w3.org/2000/svg" version="1.1" viewBox="0 0 719.1 59.3">
  <!-- Generator: Adobe Illustrator 30.0.0, SVG Export Plug-In . SVG Version: 2.1.1 Build 123)  -->
  <defs>
    <style>
      .st0 {
        fill: #b50826;
      }

      .st1 {
        fill: #f7cdce;
      }

      .st2 {
        fill: #810f1d;
      }

      .st3 {
        fill: #f9c3c6;
      }

      .st4 {
        fill: #a00f24;
      }

      .st5 {
        fill: #f5e0e3;
      }

      .st6 {
        fill: #7eb829;
      }

      .st7 {
        fill: #488722;
      }

      .st8 {
        fill: #ba0b28;
      }

      .st9 {
        fill: #66aa27;
      }

      .st10 {
        fill: #cd312b;
      }

      .st11 {
        fill: #f48993;
      }

      .st12 {
        fill: #418222;
      }

      .st13 {
        fill: #4b8820;
      }

      .st14 {
        fill: #f44258;
      }

      .st15 {
        fill: #fff;
      }

      .st16 {
        fill: #d0152c;
      }

      .st17 {
        fill: #f58d97;
      }

      .st18 {
        fill: #559724;
      }

      .st19 {
        fill: #85b927;
      }

      .st20 {
        fill: #4c8e22;
      }

      .st21 {
        fill: #71ad2b;
      }

      .st22 {
        fill: #9a1119;
      }

      .st23 {
        fill: #e11936;
      }

      .st24 {
        fill: #d0152d;
      }
    </style>
  </defs>
  <path class="st16" d="M25,32.1c-.4-2.6-1.3-4.6-2.6-5.9-1.3-1.3-3.1-2-5.3-2-1.6,0-3.1.4-4.3,1.1-1.2.8-2.2,1.8-3,3-.8,1.3-1.4,2.7-1.8,4.3-.4,1.6-.6,3.2-.6,4.9,0,2.7.4,5.1,1.2,7.2.8,2.1,1.9,3.7,3.4,4.9,1.5,1.2,3.3,1.8,5.4,1.8s3.9-.5,5.9-1.5c1.9-1,3.6-2.4,4.9-4.3l2.3,2.1c-1.5,2.1-3.1,3.7-4.8,4.8-1.7,1.1-3.3,1.8-5,2.2s-3.1.6-4.3.6c-2.4,0-4.6-.4-6.6-1.3s-3.7-2.1-5.1-3.6c-1.4-1.5-2.5-3.3-3.3-5.3C.4,43,0,40.8,0,38.5s.3-4.2,1-6.3c.7-2.1,1.7-4,3.1-5.7,1.4-1.7,3.1-3.1,5.1-4.1,2.1-1,4.5-1.5,7.2-1.5s2.6.2,4,.6c1.5.4,2.8,1,4.1,1.7l-.2-2h3.6v11h-3.1Z"/>
  <path class="st16" d="M33,54.5v-3.1c.7,0,1.3-.1,1.8-.3.5-.2.9-.5,1.1-1.1.3-.6.4-1.5.4-2.7v-18c0-.8,0-1.7,0-2.4,0-.8,0-1.4.1-1.8-.5,0-1.1,0-1.9,0-.8,0-1.3,0-1.6,0v-3.6h13.5v3.1c-.7,0-1.3.1-1.8.3-.5.2-.9.5-1.2,1.1-.3.5-.4,1.5-.4,2.7v7.3h12.9v-6.8c0-.8,0-1.7,0-2.4,0-.8,0-1.4.1-1.8-.5,0-1.1,0-1.9,0-.8,0-1.3,0-1.6,0v-3.6h13.5v3.1c-.7,0-1.3.1-1.8.3-.5.2-.9.5-1.2,1.1-.3.5-.4,1.5-.4,2.7v18c0,.8,0,1.7,0,2.4,0,.8,0,1.4-.1,1.8.5,0,1.1-.1,1.9-.1.8,0,1.3,0,1.6,0v3.6h-13.5v-3.1c.7,0,1.3-.1,1.8-.3.5-.2.9-.5,1.1-1.1.3-.6.4-1.5.4-2.7v-7.6h-12.9v7.1c0,.8,0,1.7,0,2.4,0,.8,0,1.4-.1,1.8.5,0,1.1-.1,1.9-.1.8,0,1.3,0,1.6,0v3.6h-13.5,0Z"/>
  <path class="st16" d="M86.9,43.1c0-1.3-.2-2.3-.6-2.9-.4-.6-1-1-1.7-1.1-.7-.1-1.5-.2-2.3-.2h-1.2v7.8c0,.8,0,1.6,0,2.4,0,.8,0,1.3-.1,1.7h6.3c.9,0,1.8-.2,2.7-.6.9-.4,1.6-1.1,2.2-2.1.6-1,.8-2.3.8-4h3.1l-.2,10.3h-24.8v-3.1c.7,0,1.3-.1,1.8-.3.5-.2.9-.5,1.1-1.1.3-.6.4-1.5.4-2.7v-18c0-.8,0-1.7,0-2.4,0-.8,0-1.4.1-1.8-.5,0-1.1,0-1.9,0-.8,0-1.3,0-1.6,0v-3.6h23.5l.3,9.1h-3.1c0-1.7-.3-3-.9-3.9-.6-.9-1.3-1.5-2.2-1.8-.9-.3-1.7-.4-2.6-.4h-1.7c-.7,0-1.2.1-1.7.3-.5.2-.8.5-1.1,1.1-.3.6-.4,1.5-.4,2.7v7h5.5l-.2-4.1h3.6v11.4h-3.1,0Z"/>
  <path class="st16" d="M100.3,54.5v-3.1c.7,0,1.3-.1,1.8-.3.5-.2.9-.5,1.1-1.1.3-.6.4-1.5.4-2.7v-18c0-.8,0-1.7,0-2.4,0-.8,0-1.4.1-1.8-.5,0-1.1,0-1.9,0-.8,0-1.3,0-1.6,0v-3.6c2.2,0,4.4,0,6.7,0s4.4,0,6.7,0c2.8,0,5.2.3,7.2.9,2,.7,3.6,1.7,4.7,3.2,1.1,1.5,1.6,3.5,1.6,6,0,1.3-.4,2.6-1,3.8-.6,1.2-1.5,2.2-2.7,3.1-1.2.9-2.7,1.6-4.6,2.2.6.3,1.2.7,1.8,1.2.6.6,1.1,1.2,1.5,1.8l2.2,3.3c.7,1.1,1.3,1.9,1.8,2.5.5.6,1.1,1.1,1.6,1.4.5.3,1.1.5,1.8.5v3.1h-7.8c-.6-.4-1.1-1-1.7-1.8-.5-.8-1.1-1.7-1.8-2.7l-3.5-5.6c-.4-.6-.8-1.2-1.1-1.6-.3-.4-.6-.8-.9-1.1h-2.4v5c0,.9,0,1.7,0,2.5,0,.8,0,1.4-.1,1.8.3,0,.8,0,1.3,0,.5,0,1.1,0,1.6,0,.5,0,.9,0,1.1,0v3.6h-14,0ZM112.7,38.3c1.8,0,3.2-.3,4.2-.8,1.1-.5,1.8-1.3,2.3-2.4.5-1,.7-2.4.7-4s-.2-2.7-.7-3.5c-.5-.9-1.1-1.5-1.8-1.9-.7-.4-1.4-.7-2.1-.8-.7-.1-1.3-.2-1.8-.2s-1.2,0-1.7.2c-.5.2-.8.5-1.1,1-.3.5-.4,1.3-.4,2.4v9.6c.3,0,.7,0,1.1.1.4,0,.8,0,1.2,0h0Z"/>
  <path class="st16" d="M132.5,54.5v-3.1c.7,0,1.3-.1,1.8-.3.5-.2.9-.5,1.1-1.1.3-.6.4-1.5.4-2.7v-18c0-.8,0-1.7,0-2.4,0-.8,0-1.4.1-1.8-.5,0-1.1,0-1.9,0-.8,0-1.3,0-1.6,0v-3.6c2.2,0,4.4,0,6.7,0s4.4,0,6.7,0c2.8,0,5.2.3,7.2.9,2,.7,3.6,1.7,4.7,3.2,1.1,1.5,1.6,3.5,1.6,6,0,1.3-.4,2.6-1,3.8-.6,1.2-1.5,2.2-2.7,3.1-1.2.9-2.7,1.6-4.6,2.2.6.3,1.2.7,1.8,1.2.6.6,1.1,1.2,1.5,1.8l2.2,3.3c.7,1.1,1.3,1.9,1.8,2.5.5.6,1.1,1.1,1.6,1.4.5.3,1.1.5,1.8.5v3.1h-7.8c-.6-.4-1.1-1-1.7-1.8-.5-.8-1.1-1.7-1.8-2.7l-3.5-5.6c-.4-.6-.8-1.2-1.1-1.6-.3-.4-.6-.8-.9-1.1h-2.4v5c0,.9,0,1.7,0,2.5,0,.8,0,1.4-.1,1.8.3,0,.8,0,1.3,0,.5,0,1.1,0,1.6,0,.5,0,.9,0,1.1,0v3.6h-14,0ZM144.9,38.3c1.8,0,3.2-.3,4.2-.8,1.1-.5,1.8-1.3,2.3-2.4.5-1,.7-2.4.7-4s-.2-2.7-.7-3.5c-.5-.9-1.1-1.5-1.8-1.9-.7-.4-1.4-.7-2.1-.8-.7-.1-1.3-.2-1.8-.2s-1.2,0-1.7.2c-.5.2-.8.5-1.1,1-.3.5-.4,1.3-.4,2.4v9.6c.3,0,.7,0,1.1.1.4,0,.8,0,1.2,0h0Z"/>
  <path class="st16" d="M171.2,54.5v-3.1c.7,0,1.3-.1,1.8-.3.5-.2.9-.5,1.1-1.1.3-.6.4-1.5.4-2.7v-4.1l-8.6-13.7c-.4-.7-.8-1.5-1.2-2.4-.4-.9-.6-1.6-.6-2.1-.5,0-.9,0-1.3,0-.3,0-.7,0-1,0v-3.6h13.9v3.1c-.9,0-1.7,0-2.3.3-.6.3-1,.7-1.1,1.2-.1.5,0,1.3.6,2.1l3.6,5.9c.2.3.4.7.7,1.2.3.5.6,1.1,1,1.7.3.6.6,1.2.7,1.6h0c.2-.4.4-.9.8-1.7s.8-1.7,1.4-2.9l2.4-4.8c.2-.3.4-.8.7-1.3.3-.5.6-1.1.9-1.6.3-.5.6-1,.9-1.3-.5,0-1.1,0-1.9,0-.8,0-1.3,0-1.7,0v-3.6h10.4v3.1c-1.1.2-2,.6-2.8,1.3-.8.7-1.6,2-2.5,3.7-1,1.9-2,3.9-3.1,5.9s-2.1,3.9-3.1,5.9v5.3c0,.8,0,1.7,0,2.4,0,.8,0,1.4-.1,1.8.5,0,1.2-.1,2-.1.8,0,1.4,0,1.7,0v3.6h-13.7,0Z"/>
  <path class="st4" d="M289.3,32.1c-.4-2.6-1.3-4.6-2.6-5.9-1.3-1.3-3.1-2-5.3-2-1.6,0-3.1.4-4.3,1.1-1.2.8-2.2,1.8-3,3-.8,1.3-1.4,2.7-1.8,4.3-.4,1.6-.6,3.2-.6,4.9,0,2.7.4,5.1,1.2,7.2.8,2.1,1.9,3.7,3.4,4.9,1.5,1.2,3.3,1.8,5.4,1.8s3.9-.5,5.9-1.5c1.9-1,3.6-2.4,4.9-4.3l2.3,2.1c-1.5,2.1-3.1,3.7-4.8,4.8-1.7,1.1-3.3,1.8-5,2.2s-3.1.6-4.3.6c-2.4,0-4.6-.4-6.6-1.3s-3.7-2.1-5.1-3.6c-1.4-1.5-2.5-3.3-3.3-5.3-.8-2-1.2-4.2-1.2-6.6s.3-4.2,1-6.3c.7-2.1,1.7-4,3.1-5.7,1.4-1.7,3.1-3.1,5.1-4.1,2.1-1,4.5-1.5,7.2-1.5s2.6.2,4,.6c1.5.4,2.8,1,4.1,1.7l-.2-2h3.6v11h-3.1Z"/>
  <path class="st4" d="M313.1,55.2c-3,0-5.5-.5-7.6-1.5-2.1-1-3.8-2.3-5.1-4-1.3-1.7-2.2-3.5-2.8-5.6-.6-2-.9-4.1-.9-6.1s.3-4,1-6,1.7-3.9,3.1-5.6c1.4-1.7,3.1-3.1,5.1-4.1,2.1-1,4.5-1.6,7.3-1.6s5.3.5,7.4,1.6c2.1,1,3.8,2.4,5.1,4.1,1.3,1.7,2.3,3.6,2.9,5.6.6,2,1,4,1,6s-.3,3.9-1,5.9c-.7,2-1.7,3.9-3.1,5.6-1.4,1.7-3.1,3.1-5.1,4.1-2.1,1-4.5,1.6-7.3,1.6h0ZM313.6,51.8c1.6,0,3-.4,4.1-1.2,1.1-.8,2-1.8,2.6-3.1.7-1.3,1.1-2.7,1.4-4.2.3-1.5.4-3,.4-4.4,0-2.2-.2-4.1-.6-5.9-.4-1.8-1-3.3-1.7-4.6-.8-1.3-1.8-2.3-3-3-1.2-.7-2.6-1-4.3-1-1.6,0-2.9.5-4,1.3-1.1.8-2,1.9-2.6,3.2-.7,1.3-1.1,2.7-1.4,4.3-.3,1.5-.4,3-.4,4.5s.2,3,.5,4.7c.3,1.7.9,3.2,1.6,4.7.7,1.5,1.7,2.7,2.9,3.6,1.2.9,2.7,1.4,4.5,1.4h0Z"/>
  <path class="st4" d="M349.8,54.9c-1.1-2.6-2.1-5.2-3.2-7.8-1.1-2.6-2.1-5.1-3.2-7.7-.3-.6-.6-1.4-1-2.5-.4-1.1-.8-2.3-1.2-3.7-.4-1.4-.8-2.9-1.2-4.4,0,1.8.1,3.4.1,5,0,1.6,0,3,0,4.4v2.1c0,.7,0,1.4,0,2.1,0,.7,0,1.4,0,2.1v2.1c0,.8,0,1.7,0,2.4,0,.8-.1,1.4-.2,1.8.5,0,1.2-.1,2-.1.8,0,1.3,0,1.6,0v3.6h-10.7v-3.1c.7,0,1.3-.1,1.8-.3.5-.2.9-.5,1.1-1.1.3-.6.4-1.5.4-2.7l.3-18c0-.8,0-1.7,0-2.4,0-.8,0-1.4,0-1.8-.5,0-1.1,0-1.9,0-.8,0-1.3,0-1.6,0v-3.6h10.4l7.1,18.2c.3.7.6,1.6.9,2.5.3,1,.7,1.9,1,2.8.3.9.5,1.6.7,2.1h0c.4-1.1.8-2.2,1.1-3.2.3-1,.7-2,1.1-3,1.2-3.3,2.4-6.5,3.6-9.7,1.2-3.2,2.4-6.5,3.6-9.7h10.9v3.1c-.7,0-1.3.1-1.8.3-.5.2-.9.5-1.2,1.1-.3.5-.4,1.5-.4,2.7l.7,18c0,.8,0,1.7,0,2.4,0,.8-.1,1.4-.2,1.8.5,0,1.2-.1,2-.1.8,0,1.3,0,1.6,0v3.6h-13.1v-3.1c.7,0,1.3-.1,1.9-.3s.9-.5,1.2-1.1c.3-.6.4-1.5.3-2.7l-.4-10c0-.4,0-1,0-2,0-.9-.1-1.9-.2-3.1,0-1.1,0-2.2-.1-3.1,0,.2-.2.4-.3.6,0,.2-.2.4-.2.6l-9.2,24.5h-4.4,0Z"/>
  <path class="st4" d="M395.5,54.9c-1.1-2.6-2.1-5.2-3.2-7.8-1.1-2.6-2.1-5.1-3.2-7.7-.3-.6-.6-1.4-1-2.5-.4-1.1-.8-2.3-1.2-3.7-.4-1.4-.8-2.9-1.2-4.4,0,1.8.1,3.4.1,5,0,1.6,0,3,0,4.4v2.1c0,.7,0,1.4,0,2.1,0,.7,0,1.4,0,2.1v2.1c0,.8,0,1.7,0,2.4,0,.8-.1,1.4-.2,1.8.5,0,1.2-.1,2-.1.8,0,1.3,0,1.6,0v3.6h-10.7v-3.1c.7,0,1.3-.1,1.8-.3.5-.2.9-.5,1.1-1.1.3-.6.4-1.5.4-2.7l.3-18c0-.8,0-1.7,0-2.4,0-.8,0-1.4,0-1.8-.5,0-1.1,0-1.9,0-.8,0-1.3,0-1.6,0v-3.6h10.4l7.1,18.2c.3.7.6,1.6.9,2.5.3,1,.7,1.9,1,2.8.3.9.5,1.6.7,2.1h0c.4-1.1.8-2.2,1.1-3.2.3-1,.7-2,1.1-3,1.2-3.3,2.4-6.5,3.6-9.7,1.2-3.2,2.4-6.5,3.6-9.7h10.9v3.1c-.7,0-1.3.1-1.8.3-.5.2-.9.5-1.2,1.1-.3.5-.4,1.5-.4,2.7l.7,18c0,.8,0,1.7,0,2.4,0,.8-.1,1.4-.2,1.8.5,0,1.2-.1,2-.1.8,0,1.3,0,1.6,0v3.6h-13.1v-3.1c.7,0,1.3-.1,1.9-.3s.9-.5,1.2-1.1c.3-.6.4-1.5.3-2.7l-.4-10c0-.4,0-1,0-2,0-.9-.1-1.9-.2-3.1,0-1.1,0-2.2-.1-3.1,0,.2-.2.4-.3.6,0,.2-.2.4-.2.6l-9.2,24.5h-4.4,0Z"/>
  <path class="st4" d="M436.7,24.7c-.7,0-1.3.1-1.8.3-.5.2-.9.5-1.2,1.1-.3.5-.4,1.5-.4,2.7v12.9c0,2,.2,3.6.6,4.9.4,1.3,1,2.3,1.7,3,.7.7,1.5,1.3,2.4,1.6.9.3,1.8.5,2.7.5,1.7,0,3.2-.3,4.4-1,1.2-.7,2.2-1.8,2.8-3.3s1-3.4,1-5.7v-12.3c0-.8,0-1.7,0-2.4,0-.8,0-1.4.1-1.8-.5,0-1.1,0-1.9,0-.8,0-1.3,0-1.7,0v-3.6h10.9v3.1c-.7,0-1.3.1-1.8.3-.5.2-.9.5-1.2,1.1-.3.5-.4,1.5-.4,2.7v11.7c0,2.7-.3,5-1,6.9-.7,1.9-1.6,3.4-2.8,4.6-1.2,1.2-2.6,2-4.2,2.5s-3.3.8-5.2.8-4.8-.4-6.6-1.1c-1.8-.8-3.1-1.8-4.2-3.1-1-1.3-1.7-2.9-2.2-4.7-.4-1.8-.6-3.6-.6-5.6v-11.4c0-.8,0-1.7,0-2.4,0-.8,0-1.4.1-1.8-.5,0-1.1,0-1.9,0-.8,0-1.3,0-1.6,0v-3.6h13.5v3.1h0Z"/>
  <path class="st4" d="M485.1,54.9l-15-19.2c-.4-.5-.8-1.1-1.3-1.7-.4-.6-.9-1.2-1.3-1.8h0v14.6c0,.8,0,1.7,0,2.4,0,.8,0,1.4-.1,1.8.5,0,1.1-.1,1.9-.1.8,0,1.3,0,1.6,0v3.6h-10.7v-3.1c.7,0,1.3-.1,1.8-.3.5-.2.9-.5,1.1-1.1.3-.6.4-1.5.4-2.7v-18c0-.8,0-1.7,0-2.4,0-.8,0-1.4.1-1.8-.5,0-1.1,0-1.9,0-.8,0-1.3,0-1.7,0v-3.6h7.4l14.4,18.1c.8,1,1.4,1.9,2,2.6.5.7,1,1.3,1.3,1.9h0v-14.9c0-.8,0-1.7,0-2.4,0-.8,0-1.4,0-1.8-.5,0-1.1,0-1.9,0-.8,0-1.3,0-1.6,0v-3.6h10.7v3.1c-.7,0-1.3.1-1.8.3-.5.2-.9.5-1.2,1.1-.3.5-.4,1.5-.4,2.7v26.2h-4Z"/>
  <path class="st4" d="M509.9,24.7c-.7,0-1.3.1-1.8.3-.5.2-.9.5-1.2,1.1-.3.5-.4,1.5-.4,2.7v18c0,.8,0,1.7,0,2.4,0,.8,0,1.4-.1,1.8.5,0,1.1-.1,1.9-.1.8,0,1.3,0,1.6,0v3.6h-13.5v-3.1c.7,0,1.3-.1,1.8-.3.5-.2.9-.5,1.1-1.1.3-.6.4-1.5.4-2.7v-18c0-.8,0-1.7,0-2.4,0-.8,0-1.4.1-1.8-.5,0-1.1,0-1.9,0-.8,0-1.3,0-1.6,0v-3.6h13.5v3.1h0Z"/>
  <path class="st4" d="M538.3,32.1c-.4-2.6-1.3-4.6-2.6-5.9-1.3-1.3-3.1-2-5.3-2-1.6,0-3.1.4-4.3,1.1-1.2.8-2.2,1.8-3,3-.8,1.3-1.4,2.7-1.8,4.3s-.6,3.2-.6,4.9c0,2.7.4,5.1,1.2,7.2.8,2.1,1.9,3.7,3.4,4.9,1.5,1.2,3.3,1.8,5.4,1.8s3.9-.5,5.9-1.5c1.9-1,3.6-2.4,4.9-4.3l2.3,2.1c-1.5,2.1-3.1,3.7-4.8,4.8s-3.3,1.8-5,2.2c-1.6.4-3.1.6-4.3.6-2.4,0-4.6-.4-6.6-1.3-2-.9-3.7-2.1-5.1-3.6-1.4-1.5-2.5-3.3-3.3-5.3-.8-2-1.2-4.2-1.2-6.6s.3-4.2,1-6.3c.7-2.1,1.7-4,3.1-5.7,1.4-1.7,3.1-3.1,5.1-4.1,2.1-1,4.5-1.5,7.2-1.5s2.6.2,4,.6c1.5.4,2.8,1,4.1,1.7l-.2-2h3.6v11h-3.1Z"/>
  <path class="st4" d="M543.9,54.5v-3.2c.9,0,1.6-.3,2.1-.8.5-.5,1-1.2,1.3-2,.4-.8.7-1.7,1.1-2.6l9.2-25.1h3.3l10,25.6c.2.5.4,1.2.8,2.1.3,1,.5,1.8.6,2.5.5,0,1-.1,1.5-.1.5,0,.9,0,1.2,0v3.6h-12.6v-3.1c.9,0,1.5-.2,1.8-.5.3-.4.5-.9.4-1.5,0-.6-.2-1.3-.5-2.1l-.9-2.6-10.2.2-.8,2.2c-.2.4-.4,1-.7,1.8-.3.8-.6,1.5-.8,2,.5,0,1.1-.1,1.8-.1.7,0,1.2,0,1.5,0v3.8h-10.1,0ZM554,41.3h7.8l-2.2-5.9c-.4-1.1-.8-2.3-1.1-3.4-.3-1.1-.5-2.2-.7-3h0c-.1.5-.3,1.3-.6,2.4-.3,1.1-.6,2.3-1.2,3.8l-2.1,6.1h0Z"/>
  <path class="st4" d="M599.2,32.2c0-1.7-.2-3.1-.7-4.2-.5-1.1-1.1-1.9-2-2.5-.9-.5-1.9-.8-3.1-.8h-2.3v22c0,.8,0,1.7,0,2.4,0,.8,0,1.4-.1,1.8.5,0,1.2-.1,2-.1.8,0,1.4,0,1.7,0v3.6h-13.7v-3.1c.7,0,1.3-.1,1.8-.3.5-.2.9-.5,1.1-1.1.3-.6.4-1.5.4-2.7v-22.5h-2.2c-1.8,0-3.2.6-4.2,1.8-1,1.2-1.6,3.1-1.6,5.6h-3.1l.2-10.6h28.5l.3,10.6h-3.1Z"/>
  <path class="st4" d="M619,24.7c-.7,0-1.3.1-1.8.3-.5.2-.9.5-1.2,1.1-.3.5-.4,1.5-.4,2.7v18c0,.8,0,1.7,0,2.4,0,.8,0,1.4-.1,1.8.5,0,1.1-.1,1.9-.1.8,0,1.3,0,1.6,0v3.6h-13.5v-3.1c.7,0,1.3-.1,1.8-.3.5-.2.9-.5,1.1-1.1.3-.6.4-1.5.4-2.7v-18c0-.8,0-1.7,0-2.4,0-.8,0-1.4.1-1.8-.5,0-1.1,0-1.9,0-.8,0-1.3,0-1.6,0v-3.6h13.5v3.1h0Z"/>
  <path class="st4" d="M638.8,55.2c-3,0-5.5-.5-7.6-1.5-2.1-1-3.8-2.3-5.1-4-1.3-1.7-2.2-3.5-2.8-5.6-.6-2-.9-4.1-.9-6.1s.3-4,1-6,1.7-3.9,3.1-5.6c1.4-1.7,3.1-3.1,5.1-4.1s4.5-1.6,7.3-1.6,5.3.5,7.4,1.6c2.1,1,3.8,2.4,5.1,4.1,1.3,1.7,2.3,3.6,2.9,5.6.6,2,1,4,1,6s-.3,3.9-1,5.9c-.7,2-1.7,3.9-3.1,5.6-1.4,1.7-3.1,3.1-5.1,4.1-2.1,1-4.5,1.6-7.3,1.6h0ZM639.3,51.8c1.6,0,3-.4,4.1-1.2,1.1-.8,2-1.8,2.6-3.1.7-1.3,1.1-2.7,1.4-4.2.3-1.5.4-3,.4-4.4,0-2.2-.2-4.1-.6-5.9-.4-1.8-1-3.3-1.7-4.6-.8-1.3-1.8-2.3-3-3-1.2-.7-2.6-1-4.3-1-1.6,0-2.9.5-4,1.3-1.1.8-2,1.9-2.6,3.2-.7,1.3-1.1,2.7-1.4,4.3-.3,1.5-.4,3-.4,4.5s.2,3,.5,4.7c.3,1.7.9,3.2,1.6,4.7.7,1.5,1.7,2.7,2.9,3.6,1.2.9,2.7,1.4,4.5,1.4h0Z"/>
  <path class="st4" d="M683.7,54.9l-15-19.2c-.4-.5-.8-1.1-1.3-1.7-.4-.6-.9-1.2-1.3-1.8h0v14.6c0,.8,0,1.7,0,2.4,0,.8,0,1.4-.1,1.8.5,0,1.1-.1,1.9-.1.8,0,1.3,0,1.6,0v3.6h-10.7v-3.1c.7,0,1.3-.1,1.8-.3.5-.2.9-.5,1.1-1.1s.4-1.5.4-2.7v-18c0-.8,0-1.7,0-2.4,0-.8,0-1.4.1-1.8-.5,0-1.1,0-1.9,0-.8,0-1.3,0-1.7,0v-3.6h7.4l14.4,18.1c.8,1,1.4,1.9,2,2.6.5.7,1,1.3,1.3,1.9h0v-14.9c0-.8,0-1.7,0-2.4,0-.8,0-1.4,0-1.8-.5,0-1.1,0-1.9,0-.8,0-1.3,0-1.6,0v-3.6h10.7v3.1c-.7,0-1.3.1-1.8.3-.5.2-.9.5-1.2,1.1-.3.5-.4,1.5-.4,2.7v26.2h-4,0Z"/>
  <path class="st4" d="M714,32.1c-.3-1.8-.8-3.2-1.5-4.4-.7-1.2-1.6-2.1-2.7-2.7-1.1-.6-2.4-.9-3.9-.8-1.3,0-2.5.4-3.5,1.1-1,.8-1.5,1.7-1.5,2.9s.3,1.8.8,2.5c.5.7,1.4,1.4,2.5,2,1.1.6,2.6,1.3,4.3,2,1.2.5,2.4,1,3.7,1.6,1.3.6,2.4,1.4,3.5,2.2,1.1.9,1.9,1.9,2.6,3,.7,1.1,1,2.5,1,4s-.5,3.5-1.5,4.9c-1,1.4-2.4,2.6-4.2,3.4-1.8.8-3.9,1.2-6.3,1.2s-2.6-.2-4.1-.6c-1.5-.4-2.8-1-4.1-1.7v2c.1,0-3.5,0-3.5,0v-11h3.1c.4,2.6,1.4,4.6,3,5.9,1.6,1.3,3.5,2,5.7,2s2.1-.2,3-.6c.8-.4,1.5-.9,2-1.6.5-.7.7-1.4.7-2.2s-.4-2-1.2-2.7c-.8-.7-1.7-1.3-2.9-1.8-1.1-.5-2.3-1-3.5-1.5-1.5-.6-2.9-1.3-4.2-2s-2.4-1.5-3.4-2.4c-1-.9-1.7-2-2.3-3.1-.5-1.2-.8-2.5-.8-4.1s.2-2,.6-3c.4-1,1-2,1.8-2.9.8-.9,2-1.6,3.4-2.2,1.4-.6,3.1-.8,5.2-.8s2.6.2,4.1.6c1.5.4,2.8.9,3.8,1.7l-.2-1.9h3.7v11h-3.1,0Z"/>
  <g id="b">
    <path class="st0" d="M234,30.6c-.4,0-.6.1-.4-.4,1.3-.3,2.6-.3,3.8-.7.2.6.4,1.2.5,1.7.2.9-.2,1.9,1.2,1.7.5,0,1.7-.8,1.7-1.3,0-.4-1.1-2-1.3-2.5,5-3.5,5.1,2.3,1.8,4.4-1.3.8-3.2,1-4.7.7-1.7-.3-3.1-1.7-4.9-1.5-.3-.1.8-.8.9-.8,1-.6,2.3-.9,3.3-1.4-.6-.2-1.3,0-1.9,0h0Z"/>
    <path class="st16" d="M256.6,48.6c-.3.2-.6-.2-.8,0-.1,0-.9,1.6-1.1,1.9-5.9,7.7-18.8,4.7-24-2.3-.2-.3-1.5-2.3-1.5-2.5,0-.5.4-2.3.4-3,0-2.6-.6-5.3-1.9-7.6,1.2-2.3,3.7-3.8,6.2-4.3.6-.1,1.3-.3,1.9,0-1,.6-2.3.8-3.3,1.4,0,0-1.2.7-.9.8,1.8-.2,3.2,1.2,4.9,1.5,1.5.3,3.4.1,4.7-.7,3.3-2.1,3.1-7.9-1.8-4.4,0-.2-.2-.4-.3-.5,10.1-8.2,20,2.2,19.3,13.1-.1,2.3-.9,4.8-2,6.8h0Z"/>
    <path class="st17" d="M251.4,31.5c1.9-.5,4,2.8,4.5,4.3,1.5,4.2.8,9.7-2.1,13.2,1-3.6.7-7.5-.7-10.9-.5-1.4-2.6-4.4-2.4-5.7,0-.3.4-.8.7-.8h0Z"/>
    <path class="st3" d="M230.1,38.7l.3-.7c1.2,2.8,2.8.3,2.8-1.6,0-.4-.3-.8-.3-1.2,2.7.3,2.1,6.9-.6,7.3-2,.3-2.4-2.4-2.3-3.8h0Z"/>
    <path class="st5" d="M232.9,35.3c0,.4.3.8.3,1.2,0,1.9-1.6,4.3-2.8,1.6l-.3.7c.2-1.4,1.2-3.7,2.9-3.5h0Z"/>
    <path class="st6" d="M225.3,4.6l2.4,3.7c3,5,6,10,8.5,15.3.6,1.3,3.3,7.2,3.3,8.2,0,.2-.1.5-.3.7-3.5-9.7-8.3-19-14.6-27.1-.2,0-.3.6-.3.7-2,4.8-3.9,10.1-5.5,15-1.2,3.4-2.2,8.6-3.6,11.7-.1.3-.3.4-.5.7-1.3-.5-.9-.9-.5-1.9.2-.5.4-.9.6-1.4,0,0,0-.2,0-.3,2.8-7.9,5.4-15.9,8.1-23.9.3,0,.8-.1,1-.3,0,0,1.3-1.1,1.4-1.2h0Z"/>
    <path class="st20" d="M227.7,8.4c0-.3.1-.3.2-.4.1,0,0,0,0,0h0c4.1,7,7.5,13.4,11.2,20.5,0,.2.2.4.3.5.3.5,1.4,2.1,1.3,2.5,0,.5-1.3,1.2-1.7,1.3-1.4.1-1-.8-1.2-1.7-.2-.6-.4-1.2-.5-1.7-2.3-7.1-7.6-16.6-12.3-22.4-.3-.3-.5-.6-.8-.9,0-.1.1-.7.3-.7,6.4,8.1,11.1,17.4,14.6,27.1.2-.2.3-.4.3-.7,0-1.1-2.7-6.9-3.3-8.2-2.5-5.3-5.5-10.3-8.5-15.3h0Z"/>
    <path class="st9" d="M226.5,5.7c.2.3,1.2,2.1,1.4,2.1,0,0,0,.2,0,.2,0,0-.2,0-.2.4l-2.4-3.7s.2-.2.2-.2c.4.4.7.8,1,1.2h0Z"/>
    <path class="st12" d="M225.1,7.1c-2,4-3.7,8.3-5.2,12.5-1.1,3.3-2.5,7.2-3,10.6,0,.1,0,.3,0,.4-.1,1-.1,2-.4,2.9-.6,0-.9.2-1.8,0,.2-.2.4-.4.5-.7,1.4-3.1,2.4-8.2,3.6-11.7,1.6-4.9,3.6-10.2,5.5-15,.3.3.5.6.8.9Z"/>
    <path class="st19" d="M238.8,1.7h-.2c0,.1.1,0,.2,0,.3.1,3,.7,3,.9,0,0-.2,0-.3,0-.1,0-.2,0,0,.2.5.2,1.5.3,2,.7.1.1-.1,0-.1,0-.3.2,0,.1,0,.2,1,.7,1.2.7,2.1,1.5.3.2,1.5.8.8.9l2.4,2.2,4.1,5.6c-2.5.7-5.1,1-7.7,1.1l-1.8-.2c.5,0,1,0,1.4,0-.7-.5-1.5-.9-2.1-1.5-1.3-1.3-2.6-2.7-3.3-4.5,1.3.5,2.7.9,4.1,1.3.2,0,.3.3.4.4,0,0,0-.2,0-.2,2.2.8,4.3,1.7,6.5,2.5-2.4-1-4.7-2.1-7.1-3,.2,0,.3,0,.3,0,1.3-.3,2.5-.5,3.8-.2,0-.2-.5-.2-.8-.2-1.1-.1-2.1,0-3.1.4,0,0-.3,0-.3,0-3-1.1-6-2-9-3.2,2.2-1.1,4.7-1.8,7.2-2-1.2,0-2.5.1-3.7.4-.8.2-3.3,1.5-3.7,1.5-.4,0-6.8-1.7-7.5-2,3.2-3.6,7.7-5,12.4-3.5l-.2.2h0Z"/>
    <path class="st18" d="M239.1,13.2c1.1.8,3,1.8,4.4,2l1.8.2c-7.7.3-12.5-1.3-17.1-7.6-.5-.6-.9-1.3-1.3-2,1.1,0,2.7.7,4,.9.9,1.5,1.6,3.4,3,4.7l-2.6-4.4c0-.2.4,0,.5,0,.3,0,3.3.9,3.4,1,.1.1.4,1.1.6,1.4.6,1,2.3,3.4,3.2,4,.2.1.3.2.3,0h0Z"/>
    <path class="st7" d="M226.7,5c.8.3,7.2,2,7.5,2,.4,0,2.9-1.3,3.7-1.5,1.2-.3,2.4-.5,3.7-.4-2.5.2-4.9.9-7.2,2,3,1.1,6.1,2,9,3.2,2.4.9,4.7,2,7.1,3-2.2-.8-4.3-1.7-6.5-2.5,0,0,0,.2,0,.2,0,0-.1-.3-.4-.4-1.4-.5-2.8-.8-4.1-1.3.6,1.8,2,3.2,3.3,4.5-.8-.6-1.4-1.2-2.1-2-.3-.5-1.3-2.4-1.6-2.5-.2-.1-3.4-1.1-3.6-1.1-.1,0-.3,0-.3.1,1.1,1.8,2.1,3.7,3.8,5,0,.3-.1.2-.3,0-.9-.6-2.6-3-3.2-4-.2-.3-.4-1.3-.6-1.4-.1-.1-3.1-.9-3.4-1,0,0-.5-.1-.5,0l2.6,4.4c-1.4-1.3-2.1-3.2-3-4.7-1.3-.2-2.8-.9-4-.9,0,0,0-.2-.3,0-.3-.4-.6-.9-1-1.2,0,0,0,0,0,0,.3.6.6.5,1.1.6h0Z"/>
    <path class="st15" d="M226.8,5.8c.4.7.9,1.3,1.3,2-.2,0-.2,0-.2,0-.2,0-1.2-1.9-1.4-2.1.2,0,.3,0,.3,0h0Z"/>
    <path class="st15" d="M243.5,3.9c0,0-.3,0,0-.2,0,0,0,.1,0,.2Z"/>
    <path class="st15" d="M241.6,2.9c-.2,0-.1,0,0-.2v.2Z"/>
    <path class="st15" d="M228.1,8.2h0c0,0,0-.1,0,0Z"/>
    <path class="st15" d="M238.8,1.7h0c0,0-.1.1-.2,0h.2Z"/>
    <path class="st21" d="M242.7,13.7c.7.5,1.4,1,2.1,1.5-.5,0-1,0-1.4,0-1.4-.1-3.3-1.1-4.4-2-1.7-1.3-2.8-3.2-3.8-5,0-.2.2-.1.3-.1.2,0,3.4,1,3.6,1.1.2.2,1.2,2.1,1.6,2.5.6.8,1.3,1.4,2.1,2h0Z"/>
    <path class="st13" d="M243.7,10.1c1-.4,2-.5,3.1-.4.2,0,.7,0,.8.2-1.3-.2-2.5,0-3.8.2Z"/>
    <path class="st13" d="M243.7,10.1s0,.2-.3,0c0-.2.2,0,.3,0Z"/>
    <path class="st22" d="M225.6,4.4s0,0,0,0c0,0-.1.1-.2.2,0,0-1.3,1.1-1.4,1.2-.2.1-.8.3-1,.3-1.4-.1-3.7-4.6-1.8-5.8,2.1-1.3,5.3,2.3,4.5,4.1h0Z"/>
    <path class="st10" d="M222,.5c1.7-.2,1.3,2.7-.4,2.3-1.2-.3-.8-2.2.4-2.3Z"/>
    <path class="st11" d="M223.7,1.2c.4-.2,1,1.2.4,1.3-.5.1-.8-1.2-.4-1.3Z"/>
    <path class="st4" d="M233.6,30.3c-.2.5,0,.3.4.4-2.6.5-5,2-6.2,4.3,1.2,2.3,1.9,5,1.9,7.6,0,.8-.5,2.5-.4,3,0,.2,1.3,2.2,1.5,2.5,5.2,7,18.1,10,24,2.3.2-.3,1-1.9,1.1-1.9.2,0,.5.3.8,0-6,11.6-21.9,10.7-28.5.4-4.2,9.4-16.9,13.7-25.4,7.2-3.6-2.8-6.1-7.5-6.6-12.1.4,0,.4-.4.8-.2,1.4,15.1,20.5,14.3,25.3,2,2.7-3.6,4.6-11.1.2-14.2-1.7-1.2-3.6-1.1-5.6-1,0-.2,0-.3,0-.4,4-.3,7.9.7,10.4,4,1.5-2.2,3.7-3.4,6.3-4h0Z"/>
    <path class="st24" d="M214.8,30c0,0,0,.2,0,.3-4-1.5-6.9-3.3-11.2-1.2-5.3,2.7-7.2,9.3-6.7,14.8-.4-.2-.4.2-.8.2-.6-5.7,1.4-12.5,6.7-15.4,4.5-2.3,7.9-.6,12,1.2h0Z"/>
    <path class="st23" d="M214.7,30.3c-.2.5-.4,1-.6,1.4-.3.1-.9,0-1.2,0-.5-.1-1.3-.5-1.7-.7-.4-.2-.6-.7-1-.9-3.3-1.8-7.1,0-9,2.9l1.6.3c-1.7,1.6-2.6,5.5-.1,6.7,2.4,1.2,5.1-1.1,5.7-3.4,2.3,1.4,5.6,1.6,8,.5,2.8-1.3,0-1.6-1.1-2.1.8,0,1.6,0,2.5,0,1.5-.1,1.4-.9,2.9.3,3.1,2.4,3,7.2,1.7,10.5-4.7,12.4-23.9,13.1-25.3-2-.5-5.5,1.3-12.2,6.7-14.8,4.3-2.1,7.2-.3,11.2,1.2h0Z"/>
    <path class="st8" d="M222.1,45.9c1.3-3.3,1.3-8.2-1.7-10.5-1.5-1.1-1.4-.4-2.9-.3-.8,0-1.7,0-2.5,0-1.8-.7-3.2-1.7-3.7-3.7,1.5,2.2,3.9,3.7,6.7,2.9.1,0,1-.3.6-.5-.6.2-1.3.2-1.9.2-.3,0-.3-.4-.3-.4.2-1,.2-1.9.4-2.9,2-.1,3.9-.2,5.6,1,4.3,3,2.5,10.6-.2,14.2h0Z"/>
    <path class="st2" d="M214.1,31.7c-.4.9-.7,1.4.5,1.9.8.3,1.2,0,1.8,0,0,0,0,.3.3.4.6,0,1.3,0,1.9-.2.3.2-.5.5-.6.5-2.7.7-5.2-.7-6.7-2.9,0-.1-.2-.3-.2-.4.4.2,1.3.6,1.7.7.3,0,.9.1,1.2,0h0Z"/>
    <path class="st14" d="M211.1,31c0,.2,0,.3.2.4.5,2,2,2.9,3.7,3.7,1,.4,4,.8,1.1,2.1-2.4,1.1-5.7.9-8-.5,1-4-2.6-6-5.5-3.3l-1.6-.3c1.9-3,5.7-4.8,9-2.9.4.2.6.7,1,.9h0Z"/>
    <path class="st1" d="M208.2,36.6c-.6,2.3-3.3,4.5-5.7,3.4-2.5-1.2-1.5-5.1.1-6.7,2.9-2.7,6.5-.7,5.5,3.3Z"/>
  </g>
</svg>