<?xml version="1.0" encoding="UTF-8"?><svg id="a" xmlns="http://www.w3.org/2000/svg" viewBox="0 0 278.4268 46.0444"><path d="M8.6709,2.1235l-4.5654.1211c-1.7773.061-2.5127.2124-2.9722.8799-.3062.4551-.4595.8188-.521,1.0615-.061.2427-.1528.3643-.3369.3643-.2144,0-.2754-.1519-.2754-.4854C0,3.5796.582.8193.6431.5762c.0923-.394.1841-.5762.3677-.5762.2451,0,.5518.3032,1.3174.3643.8887.0908,2.0532.1514,3.0645.1514h12.1328c.9805,0,1.6548-.0908,2.1143-.1514.46-.0913.7051-.1519.8271-.1519.2148,0,.2451.1821.2451.6372,0,.6367-.0918,2.73-.0918,3.5186-.0303.3032-.0918.4854-.2754.4854-.2451,0-.3066-.1514-.3374-.6064l-.0308-.334c-.061-.7886-.8882-1.6377-3.6152-1.6987l-3.8604-.0908v12.437c0,2.791,0,5.1875.1528,6.4917.0923.8491.2759,1.5166,1.1948,1.6382.4292.0605,1.1035.1211,1.563.1211.3369,0,.4902.0908.4902.2427,0,.2124-.2451.3032-.5825.3032-2.022,0-3.9521-.0908-4.8101-.0908-.7046,0-2.6353.0908-3.8608.0908-.3984,0-.6128-.0908-.6128-.3032,0-.1519.1226-.2427.4902-.2427.4595,0,.8276-.0605,1.103-.1211.6128-.1216.7969-.7891.8887-1.6685.1533-1.2739.1533-3.6704.1533-6.4614V2.1235Z"/><path d="M41.0547,10.0713c.0918,0,.1836-.061.1836-.2124v-.6372c0-4.6108,0-5.46-.061-6.4307-.0615-1.0317-.3066-1.5171-1.3179-1.7295-.2451-.0605-.7656-.0908-1.1948-.0908-.3369,0-.521-.0605-.521-.2729s.2148-.2729.6436-.2729c1.6548,0,3.585.0908,4.4121.0908.7354,0,2.666-.0908,3.8608-.0908.4287,0,.6431.0605.6431.2729s-.1836.2729-.5513.2729c-.2451,0-.521.0303-.8887.0908-.8271.1519-1.0723.6675-1.1333,1.7295-.0615.9707-.0615,1.8198-.0615,6.4307v5.3389c0,2.791,0,5.1875.1533,6.4917.0918.8491.2754,1.5166,1.1948,1.6382.4292.0605,1.103.1211,1.5625.1211.3374,0,.4902.0908.4902.2427,0,.2124-.2451.3032-.6128.3032-1.9912,0-3.9219-.0908-4.7798-.0908-.7046,0-2.6348.0908-3.8296.0908-.4292,0-.6436-.0908-.6436-.3032,0-.1519.1226-.2427.4902-.2427.4595,0,.8271-.0605,1.103-.1211.6128-.1216.7661-.7891.8882-1.6685.1533-1.2739.1533-3.6704.1533-6.4614v-2.6694c0-.1211-.0918-.1821-.1836-.1821h-11.7046c-.0918,0-.1836.0303-.1836.1821v2.6694c0,2.791,0,5.1875.1528,6.4917.0923.8491.2759,1.5166,1.1953,1.6382.4287.0605,1.103.1211,1.5625.1211.3369,0,.4902.0908.4902.2427,0,.2124-.2451.3032-.6128.3032-1.9917,0-3.9219-.0908-4.7798-.0908-.7046,0-2.6348.0908-3.8604.0908-.3984,0-.6133-.0908-.6133-.3032,0-.1519.123-.2427.4902-.2427.46,0,.8276-.0605,1.1035-.1211.6123-.1216.7656-.7891.8882-1.6685.1533-1.2739.1533-3.6704.1533-6.4614v-5.3389c0-4.6108,0-5.46-.061-6.4307-.0615-1.0317-.3066-1.5171-1.3179-1.7295-.2451-.0605-.7661-.0908-1.1948-.0908-.3369,0-.521-.0605-.521-.2729s.2144-.2729.6436-.2729c1.6548,0,3.585.0908,4.4121.0908.7354,0,2.6655-.0908,3.8608-.0908.4287,0,.6431.0605.6431.2729s-.1836.2729-.5513.2729c-.2451,0-.521.0303-.8887.0908-.8271.1519-1.0723.6675-1.1338,1.7295-.061.9707-.061,1.8198-.061,6.4307v.6372c0,.1514.0918.2124.1836.2124h11.7046Z"/><path d="M53.3989,9.2217c0-4.6108,0-5.46-.061-6.4307-.0615-1.0317-.3066-1.5171-1.3179-1.7295-.2451-.0605-.7661-.0908-1.1948-.0908-.3369,0-.521-.0605-.521-.2729s.2144-.2729.6743-.2729c.8271,0,1.7158.0303,2.4814.0303.7969.0303,1.5015.0605,1.9307.0605.9805,0,7.0776,0,7.6597-.0303.5825-.0605,1.0728-.1211,1.3179-.1821.1528-.0303.3369-.1211.4902-.1211.1528,0,.1836.1211.1836.2729,0,.2124-.1533.5762-.2451,1.9717-.0308.3032-.0918,1.6382-.1533,2.002-.0303.1519-.0918.334-.3062.334s-.2759-.1519-.2759-.4248c0-.2124-.0308-.728-.1836-1.0918-.2148-.5464-.521-.9102-2.0532-1.0923-.521-.0605-3.7378-.1216-4.3506-.1216-.1533,0-.2144.0913-.2144.3037v7.6743c0,.2124.0303.334.2144.334.6738,0,4.1978,0,4.9023-.061.7354-.0605,1.1948-.1514,1.4707-.4546.2144-.2427.3369-.3945.4902-.3945.1226,0,.2144.0605.2144.2427s-.1226.6675-.2451,2.2144c-.0308.6069-.1226,1.8203-.1226,2.0327,0,.2422,0,.5762-.2759.5762-.2144,0-.2754-.1216-.2754-.2729-.0308-.3032-.0308-.6978-.123-1.0923-.1528-.6064-.582-1.0615-1.7158-1.1831-.582-.0605-3.6152-.0908-4.3506-.0908-.1533,0-.1836.1216-.1836.3032v2.3965c0,1.0312-.0308,3.8223,0,4.7021.061,2.0928.5513,2.5479,3.6768,2.5479.7964,0,2.083,0,2.8799-.3643.7969-.3638,1.1641-1.001,1.3789-2.2446.061-.3335.1226-.4551.3369-.4551.2451,0,.2451.2427.2451.5464,0,.6973-.2451,2.7603-.3984,3.3672-.2144.7886-.4902.7886-1.6543.7886-2.2979,0-3.9834-.061-5.3008-.0913-1.3174-.0605-2.2676-.0908-3.1865-.0908-.3369,0-1.0112,0-1.7466.0303-.7046,0-1.5015.0605-2.1138.0605-.3984,0-.6133-.0908-.6133-.3032,0-.1519.123-.2427.4902-.2427.46,0,.8276-.0605,1.1035-.1211.6123-.1216.7656-.7891.8882-1.6685.1533-1.2739.1533-3.6704.1533-6.4614v-5.3389Z"/><path d="M82.1348,20.4756c-3.0024-2.6084-3.7993-6.0059-3.7993-8.9482,0-2.063.6436-5.6426,3.585-8.312,2.2061-2.002,5.1167-3.2153,9.6821-3.2153,1.8994,0,3.0332.1216,4.4429.3032,1.1641.1519,2.1445.4248,3.064.5161.3369.0303.4595.1816.4595.3638,0,.2427-.0918.6069-.1533,1.6685-.061,1.001-.0308,2.6694-.0918,3.2759-.0308.4551-.0918.6978-.3677.6978-.2451,0-.3066-.2427-.3066-.667-.0303-.9404-.4287-2.0024-1.1948-2.791-1.0112-1.0615-3.4009-1.8809-6.2197-1.8809-2.6655,0-4.4121.6675-5.7603,1.8809-2.2368,2.0322-2.8188,4.9141-2.8188,7.8564,0,7.2197,5.5459,10.7993,9.6514,10.7993,2.7271,0,4.3813-.3032,5.6069-1.6987.521-.5762.9194-1.4561,1.042-2.002.0918-.4854.1533-.6069.3984-.6069.2144,0,.2754.2124.2754.4551,0,.3638-.3672,3.0029-.6738,4.0347-.1533.5156-.2759.667-.7969.8794-1.2256.4854-3.5537.6978-5.5146.6978-4.1978,0-7.7217-.9102-10.5098-3.3066Z"/><path d="M120.4014,10.0713c.0918,0,.1836-.061.1836-.2124v-.6372c0-4.6108,0-5.46-.061-6.4307-.0615-1.0317-.3066-1.5171-1.3179-1.7295-.2451-.0605-.7656-.0908-1.1948-.0908-.3369,0-.521-.0605-.521-.2729s.2148-.2729.6436-.2729c1.6548,0,3.585.0908,4.4121.0908.7354,0,2.666-.0908,3.8608-.0908.4287,0,.6431.0605.6431.2729s-.1836.2729-.5513.2729c-.2451,0-.521.0303-.8887.0908-.8271.1519-1.0723.6675-1.1333,1.7295-.0615.9707-.0615,1.8198-.0615,6.4307v5.3389c0,2.791,0,5.1875.1533,6.4917.0918.8491.2754,1.5166,1.1948,1.6382.4292.0605,1.103.1211,1.5625.1211.3374,0,.4902.0908.4902.2427,0,.2124-.2451.3032-.6128.3032-1.9912,0-3.9219-.0908-4.7798-.0908-.7046,0-2.6348.0908-3.8296.0908-.4292,0-.6436-.0908-.6436-.3032,0-.1519.1226-.2427.4902-.2427.4595,0,.8271-.0605,1.103-.1211.6128-.1216.7661-.7891.8882-1.6685.1533-1.2739.1533-3.6704.1533-6.4614v-2.6694c0-.1211-.0918-.1821-.1836-.1821h-11.7046c-.0918,0-.1836.0303-.1836.1821v2.6694c0,2.791,0,5.1875.1528,6.4917.0923.8491.2759,1.5166,1.1953,1.6382.4287.0605,1.103.1211,1.5625.1211.3369,0,.4902.0908.4902.2427,0,.2124-.2451.3032-.6128.3032-1.9917,0-3.9219-.0908-4.7798-.0908-.7046,0-2.6348.0908-3.8604.0908-.3984,0-.6133-.0908-.6133-.3032,0-.1519.123-.2427.4902-.2427.46,0,.8276-.0605,1.1035-.1211.6123-.1216.7656-.7891.8882-1.6685.1533-1.2739.1533-3.6704.1533-6.4614v-5.3389c0-4.6108,0-5.46-.061-6.4307-.0615-1.0317-.3066-1.5171-1.3179-1.7295-.2451-.0605-.7661-.0908-1.1948-.0908-.3369,0-.521-.0605-.521-.2729s.2144-.2729.6436-.2729c1.6548,0,3.585.0908,4.4121.0908.7354,0,2.6655-.0908,3.8608-.0908.4287,0,.6431.0605.6431.2729s-.1836.2729-.5513.2729c-.2451,0-.521.0303-.8887.0908-.8271.1519-1.0723.6675-1.1338,1.7295-.061.9707-.061,1.8198-.061,6.4307v.6372c0,.1514.0918.2124.1836.2124h11.7046Z"/><path d="M132.7456,9.2217c0-4.6108,0-5.46-.061-6.4307-.0615-1.0317-.3066-1.5171-1.3179-1.7295-.2451-.0605-.7661-.0908-1.1948-.0908-.3369,0-.521-.0605-.521-.2729s.2144-.2729.6743-.2729c1.624,0,3.5542.0908,4.1973.0908,1.042,0,3.3706-.0908,4.3203-.0908,1.9307,0,3.9834.1821,5.6377,1.3042.8579.5767,2.0835,2.1235,2.0835,4.1558,0,2.2451-.9497,4.3076-4.0444,6.7949,2.7271,3.3975,4.8413,6.0977,6.6489,7.978,1.7158,1.7593,2.9722,1.9717,3.4316,2.063.3369.0605.6128.0908.8579.0908s.3677.0908.3677.2427c0,.2427-.2144.3032-.582.3032h-2.9106c-1.7158,0-2.4819-.1514-3.2788-.5762-1.3174-.6978-2.4819-2.1235-4.1978-4.459-1.2256-1.6685-2.6348-3.7314-3.0332-4.1865-.1533-.1816-.3369-.2119-.5513-.2119l-2.6655-.061c-.1533,0-.2451.061-.2451.2427v.4248c0,2.8213,0,5.2178.1528,6.4917.0923.8794.2759,1.5469,1.1948,1.6685.46.0605,1.1338.1211,1.5015.1211.2451,0,.3677.0908.3677.2427,0,.2124-.2144.3032-.6128.3032-1.7769,0-4.0444-.0908-4.5039-.0908-.582,0-2.5122.0908-3.7378.0908-.3984,0-.6133-.0908-.6133-.3032,0-.1519.123-.2427.4902-.2427.46,0,.8276-.0605,1.1035-.1211.6123-.1216.7656-.7891.8882-1.6685.1533-1.2739.1533-3.6704.1533-6.4614v-5.3389ZM136.3613,11.6182c0,.3335.061.4551.2754.5459.6436.2124,1.5625.3037,2.3286.3037,1.2256,0,1.624-.1216,2.1753-.5161.9194-.667,1.8081-2.0625,1.8081-4.5498,0-4.3076-2.8804-5.5513-4.688-5.5513-.7661,0-1.3174.0303-1.624.1211-.2144.0605-.2754.1821-.2754.4248v9.2217Z"/><path d="M150.8506,11.8911c0-5.187,3.4624-11.8911,12.6543-11.8911,7.6294,0,12.3784,4.3984,12.3784,11.3452s-4.9023,12.437-12.6851,12.437c-8.7935,0-12.3477-6.522-12.3477-11.8911ZM171.5938,12.4678c0-6.7949-3.9526-11.0117-8.9775-11.0117-3.5234,0-7.5371,1.9414-7.5371,9.4946,0,6.3096,3.5234,11.3149,9.4062,11.3149,2.1445,0,7.1084-1.0312,7.1084-9.7979Z"/><path d="M182.1001,19.2319c.061,2.3662.4595,3.1548,1.0723,3.3672.521.1821,1.103.2124,1.5933.2124.3369,0,.521.0605.521.2427,0,.2427-.2759.3032-.7046.3032-1.9917,0-3.2173-.0908-3.7993-.0908-.2759,0-1.7158.0908-3.3091.0908-.3984,0-.6743-.0303-.6743-.3032,0-.1821.1841-.2427.4902-.2427.3984,0,.9497-.0303,1.3789-.1514.7964-.2432.9194-1.1226.9497-3.7617l.2759-17.8672c0-.6064.0918-1.0312.3984-1.0312.3369,0,.6128.3945,1.1333.9404.3682.3945,5.0254,5.248,9.4985,9.6465,2.0835,2.0625,6.2197,6.4307,6.7407,6.916h.1533l-.3066-13.6201c-.0303-1.8506-.3062-2.4268-1.0415-2.73-.4595-.1821-1.1948-.1821-1.624-.1821-.3677,0-.4902-.0908-.4902-.2729,0-.2427.3369-.2729.7964-.2729,1.5938,0,3.0645.0908,3.7075.0908.3374,0,1.5015-.0908,3.0029-.0908.3979,0,.7046.0303.7046.2729,0,.1821-.1836.2729-.5518.2729-.3062,0-.5513,0-.9189.0908-.8579.2432-1.103.8799-1.1338,2.5786l-.3369,19.1411c0,.6675-.1226.9404-.3984.9404-.3369,0-.7046-.334-1.0415-.6675-1.9302-1.8198-5.8521-5.7939-9.0386-8.9185-3.3398-3.2759-6.7412-6.9766-7.2925-7.5532h-.0918l.3369,12.6494Z"/><path d="M207.5894,9.2217c0-4.6108,0-5.46-.061-6.4307-.0615-1.0317-.3682-1.5474-1.042-1.6987-.3369-.0913-.7354-.1216-1.103-.1216-.3062,0-.4902-.0605-.4902-.3032,0-.1821.2451-.2427.7354-.2427,1.1646,0,3.0947.0908,3.9829.0908.7661,0,2.5742-.0908,3.7383-.0908.3984,0,.6436.0605.6436.2427,0,.2427-.1841.3032-.4902.3032-.3066,0-.5518.0303-.9194.0908-.8271.1519-1.0723.6675-1.1333,1.7295-.0615.9707-.0615,1.8198-.0615,6.4307v5.3389c0,2.9424,0,5.3389.1226,6.6436.0918.8188.3062,1.3647,1.2256,1.4863.4292.0605,1.103.1211,1.5625.1211.3374,0,.4902.0908.4902.2427,0,.2124-.2451.3032-.582.3032-2.022,0-3.9526-.0908-4.7798-.0908-.7046,0-2.6348.0908-3.8604.0908-.3984,0-.6133-.0908-.6133-.3032,0-.1519.123-.2427.4902-.2427.46,0,.8276-.0605,1.1035-.1211.6123-.1216.7964-.6372.8882-1.5171.1533-1.2739.1533-3.6704.1533-6.6128v-5.3389Z"/><path d="M219.292,20.4756c-3.0024-2.6084-3.7993-6.0059-3.7993-8.9482,0-2.063.6436-5.6426,3.585-8.312,2.2061-2.002,5.1167-3.2153,9.6821-3.2153,1.8994,0,3.0332.1216,4.4429.3032,1.1641.1519,2.1445.4248,3.064.5161.3369.0303.4595.1816.4595.3638,0,.2427-.0918.6069-.1533,1.6685-.061,1.001-.0308,2.6694-.0918,3.2759-.0308.4551-.0918.6978-.3677.6978-.2451,0-.3066-.2427-.3066-.667-.0303-.9404-.4287-2.0024-1.1948-2.791-1.0112-1.0615-3.4009-1.8809-6.2197-1.8809-2.6655,0-4.4121.6675-5.7603,1.8809-2.2368,2.0322-2.8188,4.9141-2.8188,7.8564,0,7.2197,5.5459,10.7993,9.6514,10.7993,2.7271,0,4.3813-.3032,5.6069-1.6987.521-.5762.9194-1.4561,1.042-2.002.0918-.4854.1533-.6069.3984-.6069.2144,0,.2754.2124.2754.4551,0,.3638-.3672,3.0029-.6738,4.0347-.1533.5156-.2759.667-.7969.8794-1.2256.4854-3.5537.6978-5.5146.6978-4.1978,0-7.7217-.9102-10.5098-3.3066Z"/><path d="M245.5781,14.5605c0,3.8828,0,5.9761.6436,6.522.5205.4551,1.3174.6675,3.707.6675,1.624,0,2.8188-.0303,3.585-.8496.3677-.394.7354-1.2437.7969-1.8198.0303-.2729.0918-.4551.3369-.4551.2144,0,.2451.1519.2451.5156,0,.3335-.2148,2.6089-.46,3.4883-.1836.6675-.3369.8193-1.9302.8193-2.2061,0-3.7993-.061-5.1782-.0913-1.3784-.0605-2.4814-.0908-3.7378-.0908-.3369,0-1.0112,0-1.7466.0303-.7046,0-1.501.0605-2.1143.0605-.3979,0-.6123-.0908-.6123-.3032,0-.1519.1221-.2427.4902-.2427.4595,0,.8271-.0605,1.1025-.1211.6133-.1216.7661-.7891.8887-1.6685.1533-1.2739.1533-3.6704.1533-6.4614v-5.3389c0-4.6108,0-5.46-.0615-6.4307-.061-1.0317-.3062-1.5171-1.3174-1.7295-.2451-.0605-.6128-.0908-1.0107-.0908-.3374,0-.521-.0605-.521-.2729s.2144-.2729.6738-.2729c1.4399,0,3.3706.0908,4.1978.0908.7354,0,2.9722-.0908,4.167-.0908.4287,0,.6436.0605.6436.2729s-.1841.2729-.5518.2729c-.3369,0-.8271.0303-1.1948.0908-.8271.1519-1.0723.6675-1.1338,1.7295-.061.9707-.061,1.8198-.061,6.4307v5.3389Z"/><path d="M258.9355,9.2217c0-4.6108,0-5.46-.0615-6.4307-.0615-1.0317-.3066-1.5171-1.3179-1.7295-.2451-.0605-.7661-.0908-1.1948-.0908-.3369,0-.521-.0605-.521-.2729s.2144-.2729.6743-.2729c.8271,0,1.7158.0303,2.4814.0303.7969.0303,1.502.0605,1.9307.0605.9805,0,7.0771,0,7.6602-.0303.582-.0605,1.0723-.1211,1.3174-.1821.1533-.0303.3369-.1211.4902-.1211s.1836.1211.1836.2729c0,.2124-.1533.5762-.2451,1.9717-.0303.3032-.0918,1.6382-.1533,2.002-.0303.1519-.0918.334-.3066.334-.2139,0-.2754-.1519-.2754-.4248,0-.2124-.0303-.728-.1836-1.0918-.2148-.5464-.5215-.9102-2.0527-1.0923-.5215-.0605-3.7383-.1216-4.3516-.1216-.1523,0-.2139.0913-.2139.3037v7.6743c0,.2124.0303.334.2139.334.6748,0,4.1982,0,4.9023-.061.7354-.0605,1.1953-.1514,1.4707-.4546.2148-.2427.3379-.3945.4902-.3945.123,0,.2148.0605.2148.2427s-.123.6675-.2451,2.2144c-.0303.6069-.1221,1.8203-.1221,2.0327,0,.2422,0,.5762-.2764.5762-.2139,0-.2754-.1216-.2754-.2729-.0312-.3032-.0312-.6978-.123-1.0923-.1533-.6064-.582-1.0615-1.7158-1.1831-.582-.0605-3.6152-.0908-4.3506-.0908-.1533,0-.1836.1216-.1836.3032v2.3965c0,1.0312-.0312,3.8223,0,4.7021.0615,2.0928.5518,2.5479,3.6768,2.5479.7969,0,2.083,0,2.8799-.3643.7969-.3638,1.1641-1.001,1.3789-2.2446.0615-.3335.1221-.4551.3369-.4551.2451,0,.2451.2427.2451.5464,0,.6973-.2451,2.7603-.3984,3.3672-.2139.7886-.4902.7886-1.6543.7886-2.2979,0-3.9834-.061-5.3008-.0913-1.3174-.0605-2.2676-.0908-3.1865-.0908-.3369,0-1.0107,0-1.7461.0303-.7051,0-1.502.0605-2.1143.0605-.3984,0-.6133-.0908-.6133-.3032,0-.1519.123-.2427.4902-.2427.46,0,.8276-.0605,1.1035-.1211.6123-.1216.7656-.7891.8887-1.6685.1533-1.2739.1533-3.6704.1533-6.4614v-5.3389Z"/><path d="M.7368,37.5581c0-3.4868,2.478-8.0078,8.9639-8.0078,5.3926,0,8.7451,2.958,8.7451,7.647s-3.4497,8.3691-8.9639,8.3691c-6.2188,0-8.7451-4.377-8.7451-8.0083ZM15.2637,37.9429c0-4.521-2.7451-7.3105-6.1948-7.3105-2.3804,0-5.1743,1.2505-5.1743,6.3008,0,4.2085,2.4297,7.5269,6.4619,7.5269,1.5059,0,4.9072-.6973,4.9072-6.5171Z"/><path d="M24.377,39.4341c0,1.9717.0244,3.4146.1216,4.2803.0728.6011.2188.9858.8501,1.0825.292.0479.7534.0718,1.0449.0718.2671,0,.3643.1206.3643.2163,0,.1445-.1455.2168-.4614.2168-1.3604,0-2.8667-.0723-3.4253-.0723s-1.9189.0723-2.7207.0723c-.2915,0-.4375-.0483-.4375-.2168,0-.0957.0732-.2163.3159-.2163.3159,0,.5591-.0239.7534-.0718.437-.0967.5586-.4814.6313-1.0825.0972-.8657.0972-2.3804.0972-4.3525v-3.6069c0-3.1025,0-3.6797-.0244-4.3291-.0483-.6973-.2427-.9375-.9229-1.106-.1699-.0483-.5347-.0723-.8506-.0723-.1943,0-.3643-.0718-.3643-.2163s.1699-.1924.5103-.1924c1.0933,0,2.4536.0479,3.061.0479.8257,0,5.5625.0244,6.0728,0,.3887-.0239.6558-.0479.8745-.0957.1216-.0244.2188-.1206.3398-.1206.0732,0,.146.0962.146.1924,0,.1445-.0972.3848-.1699.9141-.0244.2163-.0728,1.4185-.0972,1.6592-.0244.1685-.0732.4087-.2188.4087s-.2671-.0962-.2671-.3364c0-.1685.0239-.481-.1216-.7695s-.5586-.6011-1.3604-.6255l-3.5469-.0723c-.1211,0-.1943.0483-.1943.2891v4.9536c0,.1201.0244.1924.146.1924l2.9878-.0239c.3643,0,.6562,0,.9717-.0244.3887-.0239.7046-.0957.8989-.3604.1216-.1201.1699-.2168.2915-.2168.0728,0,.1216.0723.1216.1924,0,.1206-.0972.6738-.1704,1.3228-.0483.4087-.0728,1.3467-.0728,1.4912,0,.1685-.0239.4565-.2427.4565-.1216,0-.1943-.144-.1943-.2881,0-.1445-.0488-.3848-.146-.6255-.0972-.2886-.3643-.6973-1.02-.7456-.5347-.0479-3.061-.0723-3.4253-.0723-.0972,0-.146.0244-.146.1685v1.6836Z"/><path d="M49.5713,36.5c.0488,0,.1216-.0239.1216-.144v-.4331c0-3.1021-.0244-3.8477-.0488-4.4971-.0483-.6973-.2427-.9136-.9229-1.106-.1704-.0483-.5347-.0723-.8262-.0723-.2427,0-.3643-.0718-.3643-.2163s.146-.1924.4614-.1924c1.1416,0,2.6479.0479,3.2065.0479.5103,0,1.9194-.0479,2.7451-.0479.3159,0,.4614.0479.4614.1924s-.1455.2163-.3887.2163c-.1699,0-.3643.0239-.6313.0723-.5591.0962-.729.3848-.7773,1.106-.0488.6494-.0488,1.2266-.0488,4.3291v3.6069c0,1.8755,0,3.4868.0972,4.3765.0732.5771.1943.9619.8506,1.0586.291.0479.7529.0718,1.0928.0718.2188,0,.3403.1206.3403.2163,0,.1445-.1704.2168-.4375.2168-1.3843,0-2.7935-.0723-3.3765-.0723-.4858,0-1.9922.0723-2.8179.0723-.2915,0-.4614-.0723-.4614-.2168,0-.0957.0972-.2163.3398-.2163.3403,0,.583-.0239.7773-.0718.4375-.0967.5586-.4814.6318-1.0825.0972-.8657.0972-2.4287.0972-4.3042v-1.5635c0-.0723-.0728-.1201-.1216-.1201h-8.0649c-.0728,0-.146.0239-.146.1201v1.5635c0,1.8755.0244,3.4385.1216,4.3281.0728.5771.1943.9619.8262,1.0586.2915.0479.7773.0718,1.0933.0718.2427,0,.3398.1206.3398.2163,0,.1445-.1699.2168-.4375.2168-1.3843,0-2.8662-.0723-3.4736-.0723-.4858,0-1.8945.0723-2.7451.0723-.2671,0-.4126-.0723-.4126-.2168,0-.0957.0728-.2163.3398-.2163.3159,0,.5591-.0239.7534-.0718.437-.0967.5586-.4814.6313-1.0825.0972-.8657.0972-2.4771.0972-4.3525v-3.6069c0-3.1025,0-3.6797-.0244-4.3291-.0483-.6973-.2427-.9136-.9229-1.106-.1699-.0483-.5347-.0723-.8506-.0723-.2183,0-.3643-.0718-.3643-.2163s.1699-.1924.4619-.1924c1.1416,0,2.5503.0479,3.1333.0479.5103,0,1.9922-.0479,2.8423-.0479.2915,0,.4375.0479.4375.1924s-.1216.2163-.3887.2163c-.1704,0-.3647.0239-.6074.0723-.583.0962-.7529.3848-.8018,1.106-.0488.6494-.0488,1.395-.0488,4.4971v.4331c0,.1201.0732.144.146.144h8.0649Z"/><path d="M58.4185,35.7549c0-3.1025,0-3.6797-.0244-4.3291-.0483-.6973-.2671-.9375-.7285-1.082-.2432-.0723-.5103-.0962-.7773-.0962-.2188,0-.3403-.0479-.3403-.2402,0-.1206.1699-.1685.5103-.1685.8018,0,2.2593.0479,2.8667.0479.5342,0,1.9189-.0479,2.7446-.0479.2671,0,.4375.0479.4375.1685,0,.1924-.1216.2402-.3403.2402s-.3887.0239-.6313.0723c-.583.0962-.7534.3848-.8018,1.106-.0483.6494-.0483,1.2266-.0483,4.3291v3.6069c0,1.9722,0,3.6069.0967,4.4731.0732.5527.2188.8652.8506.9619.2915.0479.7773.0718,1.0928.0718.2432,0,.3403.1206.3403.2163,0,.1445-.1699.2168-.4131.2168-1.4087,0-2.8662-.0723-3.4492-.0723-.4858,0-1.9434.0723-2.7935.0723-.2676,0-.4131-.0723-.4131-.2168,0-.0957.0728-.2163.3398-.2163.3159,0,.5586-.0239.7529-.0718.4375-.0967.5591-.3848.6318-.9863.0972-.8418.0972-2.4766.0972-4.4487v-3.6069Z"/><path d="M79.6758,43.9307c0,.5532,0,.5771-.2676.7217-1.4331.6973-3.5464.9141-5.2227.9141-5.2471,0-9.8867-2.3569-9.8867-8.0083,0-3.2705,1.7734-5.5552,3.7412-6.6851,2.04-1.1787,3.9595-1.3228,5.7568-1.3228,1.4819,0,3.3525.2407,3.7896.3364.4375.0723,1.1904.1924,1.7007.2168.2427.0239.2915.0962.2915.2402,0,.2407-.146.7939-.146,3.3667,0,.313-.1211.457-.2915.457-.1455,0-.1943-.0962-.2183-.2646-.0488-.4565-.1704-1.106-.729-1.6831-.6313-.6494-2.2349-1.5635-4.6396-1.5635-1.166,0-2.6479.0244-4.1299,1.2026-1.1899.9619-1.9673,2.4771-1.9673,4.978,0,4.4004,2.8662,7.5991,7.4331,7.5991.5586,0,.9961,0,1.5063-.2163.3154-.1445.4126-.3608.4126-.7217v-1.876c0-1.0098,0-1.7793-.0239-2.4043-.0244-.6978-.2432-.9141-.9233-1.1064-.1699-.0479-.5347-.0723-.8257-.0723-.1943,0-.3403-.0962-.3403-.2163,0-.1685.1699-.1924.4614-.1924,1.1177,0,2.6479.0483,3.2793.0483.6807,0,1.7979-.0483,2.5024-.0483.2915,0,.437.0239.437.1924,0,.1201-.1211.2163-.2671.2163-.1699,0-.3403.0244-.583.0723-.583.0962-.8018.3848-.8257,1.1064-.0244.625-.0244,1.4424-.0244,2.4526v2.2603Z"/><path d="M95.105,36.5c.0483,0,.1216-.0239.1216-.144v-.4331c0-3.1021-.0244-3.8477-.0488-4.4971-.0483-.6973-.2427-.9136-.9229-1.106-.1699-.0483-.5347-.0723-.8262-.0723-.2427,0-.3643-.0718-.3643-.2163s.1455-.1924.4614-.1924c1.1421,0,2.6479.0479,3.2065.0479.5103,0,1.9189-.0479,2.7451-.0479.3159,0,.4614.0479.4614.1924s-.1455.2163-.3887.2163c-.1699,0-.3643.0239-.6313.0723-.5586.0962-.729.3848-.7773,1.106-.0488.6494-.0488,1.2266-.0488,4.3291v3.6069c0,1.8755,0,3.4868.0972,4.3765.0728.5771.1943.9619.8501,1.0586.292.0479.7534.0718,1.0933.0718.2188,0,.3403.1206.3403.2163,0,.1445-.1699.2168-.4375.2168-1.3848,0-2.7935-.0723-3.3765-.0723-.4858,0-1.9917.0723-2.8179.0723-.2915,0-.4614-.0723-.4614-.2168,0-.0957.0972-.2163.3398-.2163.3403,0,.583-.0239.7773-.0718.4375-.0967.5591-.4814.6318-1.0825.0972-.8657.0972-2.4287.0972-4.3042v-1.5635c0-.0723-.0732-.1201-.1216-.1201h-8.0649c-.0728,0-.1455.0239-.1455.1201v1.5635c0,1.8755.0239,3.4385.1211,4.3281.0732.5771.1943.9619.8262,1.0586.2915.0479.7773.0718,1.0928.0718.2432,0,.3403.1206.3403.2163,0,.1445-.1699.2168-.437.2168-1.3848,0-2.8667-.0723-3.4741-.0723-.4858,0-1.8945.0723-2.7446.0723-.2676,0-.4131-.0723-.4131-.2168,0-.0957.0728-.2163.3398-.2163.3159,0,.5586-.0239.7529-.0718.4375-.0967.5591-.4814.6318-1.0825.0972-.8657.0972-2.4771.0972-4.3525v-3.6069c0-3.1025,0-3.6797-.0244-4.3291-.0483-.6973-.2427-.9136-.9229-1.106-.1704-.0483-.5347-.0723-.8501-.0723-.2188,0-.3647-.0718-.3647-.2163s.1704-.1924.4614-.1924c1.1421,0,2.5508.0479,3.1338.0479.5103,0,1.9922-.0479,2.8423-.0479.2915,0,.437.0479.437.1924s-.1211.2163-.3887.2163c-.1699,0-.3643.0239-.6069.0723-.583.0962-.7534.3848-.8018,1.106-.0483.6494-.0483,1.395-.0483,4.4971v.4331c0,.1201.0728.144.1455.144h8.0649Z"/><path d="M103.9517,35.7549c0-3.1025,0-3.6797-.0244-4.3291-.0483-.6973-.2427-.9136-.9229-1.106-.1704-.0483-.5347-.0723-.8501-.0723-.2188,0-.3647-.0718-.3647-.2163s.1704-.1924.4858-.1924c1.1177,0,2.478.0479,3.085.0479.6807,0,5.4175.0244,5.8301,0,.3887-.0239.729-.0957.8989-.1201.1216-.0239.2432-.0962.3403-.0962.1211,0,.1455.0962.1455.1924,0,.1445-.1211.3848-.1699,1.3228-.0244.2163-.0728,1.1064-.1216,1.3467-.0239.0962-.0728.3369-.2427.3369-.146,0-.1699-.0967-.1699-.2646,0-.1445-.0244-.5049-.146-.7456-.1699-.3608-.3403-.6494-1.4087-.7456-.3647-.0479-2.915-.0962-3.3525-.0962-.0972,0-.1455.0723-.1455.1924v5.0503c0,.1201.0239.2163.1455.2163.4858,0,3.2549,0,3.7412-.0483.5098-.0479.8013-.1201,1.02-.3125.1699-.144.2427-.2646.3403-.2646.0967,0,.1699.0967.1699.2168s-.0488.457-.1699,1.4907c-.0488.4087-.0977,1.2266-.0977,1.3706,0,.1685-.0239.457-.2183.457-.146,0-.1943-.0723-.1943-.168-.0244-.2168-.0244-.4814-.0728-.7456-.1216-.4087-.3887-.7217-1.1904-.7935-.3887-.0483-2.8179-.0967-3.3525-.0967-.0972,0-.1211.0967-.1211.2168v1.6353c0,.6973-.0244,2.4287,0,3.0298.0483,1.395.7041,1.7075,2.8906,1.7075.5586,0,1.4575-.0239,2.0161-.2646.5347-.2402.7773-.6733.9233-1.5151.0483-.2163.0967-.3125.2427-.3125.1699,0,.1943.2646.1943.481,0,.457-.1699,1.8521-.2915,2.2607-.1455.5288-.3398.5288-1.1416.5288-1.6035,0-2.8906-.0239-3.9355-.0723-1.0444-.0239-1.8462-.0479-2.4775-.0479-.2432,0-.7046.0239-1.2148.0239-.5098.0239-1.0444.0483-1.4814.0483-.2676,0-.4131-.0723-.4131-.2168,0-.0957.0728-.2163.3398-.2163.3159,0,.5586-.0239.7529-.0718.4375-.0967.5591-.4814.6318-1.0825.0972-.8657.0972-2.4771.0972-4.3525v-3.6069Z"/><path d="M116.562,35.7549c0-3.1025,0-3.6797-.0244-4.3291-.0483-.6973-.2427-.9136-.9229-1.106-.1704-.0483-.5347-.0723-.8501-.0723-.2188,0-.3647-.0718-.3647-.2163s.1704-.1924.4858-.1924c1.1177,0,2.478.0479,2.915.0479.729,0,2.6724-.0479,3.3281-.0479,1.3604,0,2.915.1201,4.0566.8657.6074.4087,1.5063,1.4429,1.5063,2.8135,0,1.5151-.8745,2.8618-2.9639,4.521,1.895,2.3086,3.4009,4.1602,4.6885,5.4351,1.1904,1.1782,1.9434,1.2744,2.2837,1.3467.2183.0479.3398.0479.5098.0479s.2676.1206.2676.2163c0,.1685-.146.2168-.4131.2168h-2.0405c-1.1904,0-1.7734-.1201-2.332-.4092-.9233-.4565-1.7251-1.4185-2.915-3.0059-.8501-1.106-1.749-2.4766-2.0161-2.7896-.1216-.1201-.2432-.144-.3887-.144l-1.9194-.0483c-.0972,0-.1699.0483-.1699.1685v.2886c0,1.8999.0244,3.4868.1216,4.3525.0728.6011.1699.9858.8257,1.0825.3159.0479.7773.0718,1.0444.0718.1704,0,.2676.1206.2676.2163,0,.1445-.1699.2168-.4375.2168-1.2388,0-3.0122-.0723-3.3281-.0723-.4126,0-1.7729.0723-2.623.0723-.2676,0-.4131-.0723-.4131-.2168,0-.0957.0728-.2163.3398-.2163.3159,0,.5586-.0239.7529-.0718.4375-.0967.5591-.4814.6318-1.0825.0972-.8657.0972-2.4771.0972-4.3525v-3.6069ZM119.2827,37.3418c0,.2163.0483.2886.1943.3608.4614.144,1.0933.1924,1.6274.1924.8506,0,1.1416-.0723,1.5063-.3369.6558-.4565,1.3843-1.3467,1.3843-3.0298,0-2.8857-1.9917-3.6313-3.2549-3.6313-.5342,0-1.0444.0239-1.2632.0723-.146.0479-.1943.1201-.1943.2886v6.084Z"/><path d="M136.437,35.7549c0-3.1025,0-3.6797-.0244-4.3291-.0483-.6973-.2427-.9136-.9229-1.106-.1704-.0483-.5347-.0723-.8501-.0723-.2188,0-.3647-.0718-.3647-.2163s.1704-.1924.4858-.1924c1.1177,0,2.478.0479,3.085.0479.6807,0,5.4175.0244,5.8301,0,.3887-.0239.729-.0957.8989-.1201.1216-.0239.2432-.0962.3403-.0962.1211,0,.1455.0962.1455.1924,0,.1445-.1211.3848-.1699,1.3228-.0244.2163-.0728,1.1064-.1216,1.3467-.0239.0962-.0728.3369-.2427.3369-.146,0-.1699-.0967-.1699-.2646,0-.1445-.0244-.5049-.146-.7456-.1699-.3608-.3403-.6494-1.4087-.7456-.3647-.0479-2.915-.0962-3.3525-.0962-.0972,0-.1455.0723-.1455.1924v5.0503c0,.1201.0239.2163.1455.2163.4858,0,3.2549,0,3.7412-.0483.5098-.0479.8013-.1201,1.02-.3125.1699-.144.2427-.2646.3403-.2646.0967,0,.1699.0967.1699.2168s-.0488.457-.1699,1.4907c-.0488.4087-.0977,1.2266-.0977,1.3706,0,.1685-.0239.457-.2183.457-.146,0-.1943-.0723-.1943-.168-.0244-.2168-.0244-.4814-.0728-.7456-.1216-.4087-.3887-.7217-1.1904-.7935-.3887-.0483-2.8179-.0967-3.3525-.0967-.0972,0-.1211.0967-.1211.2168v1.6353c0,.6973-.0244,2.4287,0,3.0298.0483,1.395.7041,1.7075,2.8906,1.7075.5586,0,1.4575-.0239,2.0161-.2646.5347-.2402.7773-.6733.9233-1.5151.0483-.2163.0967-.3125.2427-.3125.1699,0,.1943.2646.1943.481,0,.457-.1699,1.8521-.2915,2.2607-.1455.5288-.3398.5288-1.1416.5288-1.6035,0-2.8906-.0239-3.9355-.0723-1.0444-.0239-1.8462-.0479-2.4775-.0479-.2432,0-.7046.0239-1.2148.0239-.5098.0239-1.0444.0483-1.4814.0483-.2676,0-.4131-.0723-.4131-.2168,0-.0957.0728-.2163.3398-.2163.3159,0,.5586-.0239.7529-.0718.4375-.0967.5591-.4814.6318-1.0825.0972-.8657.0972-2.4771.0972-4.3525v-3.6069Z"/><path d="M149.0474,35.7549c0-3.1025,0-3.6797-.0244-4.3291-.0483-.6973-.2427-.9136-.9229-1.106-.1704-.0483-.5347-.0723-.8501-.0723-.2188,0-.3647-.0718-.3647-.2163s.1704-.1924.4858-.1924c1.1177,0,2.478.0479,3.085.0479.6562,0,2.1865-.0479,3.4741-.0479,2.6719,0,6.2671,0,8.5991,2.3325,1.0688,1.0581,2.0166,2.7656,2.0166,5.1943,0,2.5732-1.1177,4.521-2.332,5.6997-.9717.9619-3.231,2.4043-7.1665,2.4043-.7773,0-1.7002-.0718-2.5503-.1201-.8506-.0723-1.6279-.1201-2.1621-.1201-.2432,0-.7046.0239-1.2148.0239-.5098.0239-1.0444.0483-1.4814.0483-.2676,0-.4131-.0723-.4131-.2168,0-.0957.0728-.2163.3398-.2163.3159,0,.5586-.0239.7529-.0718.4375-.0967.5591-.4814.6318-1.0825.0972-.8657.0972-2.4771.0972-4.3525v-3.6069ZM151.9141,38.0151c0,2.1646.0239,3.7275.0483,4.1362.0244.5049.0728,1.2266.2427,1.4429.2676.3848,1.1177.8179,2.7939.8179,1.9434,0,3.3765-.3369,4.6641-1.395,1.3848-1.1304,1.8218-2.958,1.8218-5.0742,0-2.5972-1.0444-4.2803-1.9917-5.0981-1.9678-1.7314-4.2998-1.9478-5.9761-1.9478-.437,0-1.1416.0483-1.312.144-.1943.0723-.2671.1685-.2671.4092-.0239.6973-.0239,2.3809-.0239,3.9917v2.5732Z"/><path d="M166.9307,35.7549c0-3.1025.0239-3.6797-.0244-4.3291-.0488-.7212-.2432-.9136-.9233-1.106-.1699-.0483-.5342-.0723-.8257-.0723-.2432,0-.3643-.0718-.3643-.2163s.1455-.1924.4614-.1924c1.1416,0,2.5747.0479,3.2065.0479.5342,0,1.9678-.0479,2.7451-.0479.3154,0,.4614.0479.4614.1924s-.1216.2163-.3403.2163c-.2427,0-.3643.0239-.6313.0723-.5591.0962-.729.3848-.7773,1.106-.0488.6494-.0488,1.2266-.0488,4.3291v2.8613c0,2.9819.583,4.1362,1.6274,4.9541.9478.7451,1.9678.8174,2.6968.8174.9229,0,2.0161-.2646,2.8662-1.082,1.1904-1.1064,1.2388-2.8857,1.2388-4.978v-2.5728c0-3.1025-.0239-3.6797-.0483-4.3291-.0483-.6973-.2188-.9136-.8989-1.106-.1699-.0483-.5342-.0723-.7773-.0723-.2427,0-.3643-.0718-.3643-.2163s.1455-.1924.4375-.1924c1.0928,0,2.5264.0479,2.5503.0479.2432,0,1.6763-.0479,2.5024-.0479.291,0,.437.0479.437.1924s-.1216.2163-.3643.2163c-.2432,0-.3647.0239-.6318.0723-.583.0962-.7285.3848-.7773,1.106-.0239.6494-.0483,1.2266-.0483,4.3291v2.188c0,2.2847-.2432,4.6895-2.0405,6.1562-1.5063,1.2505-3.1338,1.4673-4.5186,1.4673-1.1172,0-3.3276-.0483-4.8823-1.395-1.0933-.938-1.9434-2.4526-1.9434-5.4106v-3.0059Z"/><path d="M185.2754,43.3535c-2.1138-1.7554-2.6724-4.064-2.6724-6.0356,0-1.395.4614-3.7998,2.502-5.603,1.5547-1.3467,3.5952-2.1646,6.7778-2.1646,1.3359,0,2.1377.0962,3.1094.2163.8013.1201,1.5059.2646,2.1377.3369.2427.0239.3154.1201.3154.2402,0,.1685-.0483.4092-.0972,1.1304-.0483.6733-.0483,1.8037-.0728,2.2124-.0244.2886-.0972.5049-.2915.5049-.1699,0-.2188-.168-.2188-.4326-.0239-.6494-.2915-1.3711-.8257-1.8999-.729-.6973-2.1621-1.2026-4.1299-1.2026-1.8701,0-3.0605.3369-4.0322,1.1543-1.5791,1.3467-1.9678,3.3188-1.9678,5.3149,0,4.8574,3.7896,7.166,6.6562,7.166,1.8945,0,2.939-.144,3.7891-1.082.3647-.4087.6562-.9858.729-1.3706.0483-.3125.0972-.4092.2671-.4092.146,0,.2432.1924.2432.3608,0,.2407-.2432,2.02-.4619,2.7173-.0967.3608-.1943.457-.5586.6016-.8501.3364-2.4775.457-3.8623.457-2.915,0-5.3926-.6016-7.3359-2.2129Z"/><path d="M203.1338,40.1313c-.1216,0-.146.0239-.1943.144l-1.1421,2.7656c-.2183.5049-.3159,1.0103-.3159,1.2505,0,.3608.1943.5771.8506.5771h.3154c.2676,0,.3159.0962.3159.2163,0,.1685-.1216.2168-.3398.2168-.7046,0-1.7007-.0723-2.3809-.0723-.2183,0-1.3604.0723-2.4775.0723-.2671,0-.3887-.0483-.3887-.2168,0-.1201.0728-.2163.2427-.2163.1943,0,.4375-.0239.6318-.0239.9717-.1445,1.3359-.7695,1.7734-1.8037l5.5869-12.7695c.2432-.5771.4131-.8174.6318-.8174.3154,0,.4126.1924.6313.6494.5103,1.1299,4.0811,9.4023,5.4414,12.5049.8257,1.8516,1.4331,2.1162,1.8218,2.1885.3159.0479.5586.0718.8018.0718.1943,0,.2915.0723.2915.2163,0,.1685-.1216.2168-.9233.2168-.7529,0-2.3076,0-4.105-.0483-.3887-.0239-.6318-.0239-.6318-.1685,0-.1201.0488-.1924.2671-.2163.146-.0239.292-.2163.1943-.4565l-1.6514-4.1367c-.0488-.1201-.1216-.144-.2188-.144h-5.0283ZM207.7002,39.001c.0977,0,.1216-.0479.0977-.1201l-2.0166-5.1221c-.0244-.0723-.0483-.1924-.0972-.1924-.0728,0-.0972.1201-.1216.1924l-2.0645,5.0981c-.0488.0962,0,.144.0728.144h4.1294Z"/><path d="M218.9507,31.0894l-3.1821.0723c-1.2393.0239-1.749.1685-2.0649.625-.2188.2886-.3159.5532-.3647.6978-.0483.168-.0967.2642-.2427.2642s-.1943-.1201-.1943-.3364c0-.3369.4131-2.3086.4614-2.4771.0488-.2646.1216-.3848.2432-.3848.1699,0,.3887.1685.9229.2407.6318.0718,1.4336.0957,2.1377.0957h8.6724c.6802,0,1.1416-.0479,1.4575-.0957.3398-.0483.5103-.0967.583-.0967.1455,0,.1699.1206.1699.4331,0,.4331-.0483,1.9478-.0483,2.4771-.0244.2163-.0728.3364-.1943.3364-.1704,0-.2188-.0962-.2432-.4087l-.0239-.2163c-.0488-.5293-.6074-1.1543-2.5264-1.1782l-2.6968-.0483v8.2725c0,1.8755.0244,3.4868.1216,4.3765.0728.5771.1943.9619.8262,1.0586.291.0479.7773.0718,1.0928.0718.2432,0,.3403.1206.3403.2163,0,.1445-.1704.2168-.4131.2168-1.4087,0-2.8423-.0723-3.4497-.0723-.4854,0-1.9434.0723-2.7935.0723-.2671,0-.4126-.0723-.4126-.2168,0-.0957.0728-.2163.3398-.2163.3159,0,.583-.0239.7529-.0718.4375-.0967.5586-.4814.6318-1.0825.0972-.8657.0972-2.4771.0972-4.3525v-8.2725Z"/><path d="M230.7114,35.7549c0-3.1025,0-3.6797-.0244-4.3291-.0483-.6973-.2671-.9375-.7285-1.082-.2432-.0723-.5103-.0962-.7773-.0962-.2188,0-.3403-.0479-.3403-.2402,0-.1206.1699-.1685.5103-.1685.8018,0,2.2593.0479,2.8667.0479.5342,0,1.9189-.0479,2.7446-.0479.2671,0,.4375.0479.4375.1685,0,.1924-.1216.2402-.3403.2402s-.3887.0239-.6313.0723c-.583.0962-.7534.3848-.8018,1.106-.0483.6494-.0483,1.2266-.0483,4.3291v3.6069c0,1.9722,0,3.6069.0967,4.4731.0732.5527.2188.8652.8506.9619.2915.0479.7773.0718,1.0928.0718.2432,0,.3403.1206.3403.2163,0,.1445-.1699.2168-.4131.2168-1.4087,0-2.8662-.0723-3.4492-.0723-.4858,0-1.9434.0723-2.7935.0723-.2676,0-.4131-.0723-.4131-.2168,0-.0957.0728-.2163.3398-.2163.3159,0,.5586-.0239.7529-.0718.4375-.0967.5591-.3848.6318-.9863.0972-.8418.0972-2.4766.0972-4.4487v-3.6069Z"/><path d="M236.5918,37.5581c0-3.4868,2.4775-8.0078,8.9639-8.0078,5.3926,0,8.7451,2.958,8.7451,7.647s-3.4497,8.3691-8.9639,8.3691c-6.2188,0-8.7451-4.377-8.7451-8.0083ZM251.1182,37.9429c0-4.521-2.7446-7.3105-6.1943-7.3105-2.3804,0-5.1738,1.2505-5.1738,6.3008,0,4.2085,2.4287,7.5269,6.4614,7.5269,1.5063,0,4.9067-.6973,4.9067-6.5171Z"/><path d="M258.8721,42.5122c.0479,1.5869.3154,2.0679.7285,2.2124.3643.1201.7773.144,1.1172.144.2432,0,.3643.0962.3643.2163,0,.1685-.1943.2168-.4854.2168-1.3848,0-2.3809-.0723-2.7695-.0723-.1943,0-1.2148.0723-2.3076.0723-.2915,0-.4858-.0244-.4858-.2168,0-.1201.1455-.2163.3398-.2163.2915,0,.6802-.0239.9717-.0962.5591-.144.6318-.6973.6558-2.4766l.1943-12.1201c0-.4092.146-.6978.3647-.6978.2671,0,.5586.313.9233.6733.2666.2646,3.4736,3.5112,6.583,6.5171,1.457,1.4189,4.2998,4.3047,4.6152,4.5933h.0977l-.2188-9.0903c-.0244-1.2505-.2188-1.6108-.7295-1.8032-.3154-.1206-.8252-.1206-1.1172-.1206-.2666,0-.3398-.0962-.3398-.2163,0-.1685.2188-.1924.5342-.1924,1.1172,0,2.2598.0479,2.7207.0479.2432,0,1.0449-.0479,2.0889-.0479.292,0,.4863.0239.4863.1924,0,.1201-.1221.2163-.3643.2163-.2188,0-.3887,0-.6562.0723-.583.1685-.7529.5288-.7773,1.6831l-.2432,12.8896c0,.457-.1699.6494-.3398.6494-.3643,0-.6553-.2163-.874-.4326-1.3359-1.2266-4.0088-3.7515-6.2432-5.8916-2.332-2.2129-4.5918-4.6895-5.0049-5.0503h-.0723l.2432,8.3447Z"/><path d="M273.9658,43.9561c0-1.2241.9453-2.1123,2.2305-2.1123s2.2305.8882,2.2305,2.1123c0,1.1763-.9453,2.0884-2.2305,2.0884s-2.2305-.9121-2.2305-2.0884ZM277.9668,43.9321c0-1.0322-.7275-1.6802-1.7705-1.6802-1.042,0-1.7695.6479-1.7695,1.6802,0,1.0078.7275,1.7041,1.7939,1.7041,1.0186,0,1.7461-.6963,1.7461-1.7041ZM275.2754,43.5962v-.6001c0-.144-.0967-.168-.291-.168-.0244,0-.0488-.0239-.0488-.0723,0-.0718.0488-.0957.1211-.0957h.0977c.0479,0,.2422.0239.4121.0239.2178,0,.3154-.0239.5576-.0239.4121,0,1.0664.0718,1.0664.6479,0,.2397-.0967.4321-.5088.7202l.4365.5039c.3154.3599.3633.3599.4121.3599.0479,0,.0723.0239.0723.0723,0,.0718-.0244.0957-.2178.0957-.3154,0-.582.0239-.9453-.4561l-.3398-.4561h-.291v.2163c0,.4321.0244.48.0488.5039.0479.0239.1699.0239.2422.0239.0488,0,.0723,0,.0723.0723,0,.0718-.0479.0957-.0967.0957h-.0967c-.0488,0-.2666-.0239-.3877-.0239-.0732,0-.3154.0239-.3643.0239h-.1211c-.0488,0-.1699-.0239-.1699-.0957,0-.0483.0244-.0723.0732-.0723.2178,0,.2422,0,.2666-.144.0244-.1201,0-.2881,0-.624v-.5278ZM275.8086,43.8359c.0732.0483.2422.0723.3398.0723.0723,0,.1455,0,.2178-.0483.1211-.0718.2188-.2158.2188-.4077,0-.2881-.2188-.5283-.5576-.5283-.0244,0-.1699,0-.2188.0483v.8638Z"/></svg>