<?xml version="1.0" encoding="UTF-8"?>
<svg width="300" height="39.8" inkscape:version="1.0.2 (e86c870879, 2021-01-15)" sodipodi:docname="Education_Week_logo.svg" version="1.1" xmlns="http://www.w3.org/2000/svg" xmlns:cc="http://creativecommons.org/ns#" xmlns:dc="http://purl.org/dc/elements/1.1/" xmlns:inkscape="http://www.inkscape.org/namespaces/inkscape" xmlns:rdf="http://www.w3.org/1999/02/22-rdf-syntax-ns#" xmlns:sodipodi="http://sodipodi.sourceforge.net/DTD/sodipodi-0.dtd" xmlns:xlink="http://www.w3.org/1999/xlink">
 <metadata>
  <rdf:RDF>
   <cc:Work rdf:about="">
    <dc:format>image/svg+xml</dc:format>
    <dc:type rdf:resource="http://purl.org/dc/dcmitype/StillImage"/>
    <dc:title/>
   </cc:Work>
  </rdf:RDF>
 </metadata>
 <sodipodi:namedview bordercolor="#666666" borderopacity="1" gridtolerance="10" guidetolerance="10" inkscape:current-layer="svg37" inkscape:cx="150" inkscape:cy="74.990196" inkscape:pageopacity="0" inkscape:pageshadow="2" inkscape:window-height="1014" inkscape:window-maximized="1" inkscape:window-width="1920" inkscape:window-x="0" inkscape:window-y="36" inkscape:zoom="3.84" objecttolerance="10" pagecolor="#ffffff" showgrid="false"/>
<symbol id="cvfa" viewBox="0 0 466.9 61.96">
<path transform="translate(-714 -496)" d="m1065 510v3.34h-5.2l-12.5 43.5h-5.2l-10.8-38.8-10.8 38.8h-5.08l-12.6-43.4h-5.07v-3.34h15.6v3.34h-5.5l10.5 38.6 10.5-38.6h-5.57v-3.34h16.6v3.34h-5.67l10.6 38.7 10.4-38.7h-5.51v-3.34z"/>
   <path transform="translate(-714 -496)" d="m1088 542h-25.9c0.49 7.17 4.89 12.3 10.6 12.3a10.6 10.6 0 0 0 10.2-8.23h4.7c-1.61 7-7.18 11.6-14.7 11.6-9.22 0-15.6-7.3-15.6-16.9s6.37-16.9 15.6-16.9 15.1 7.05 15.1 16.6zm-25.9-3h21.2c-0.56-6.87-5-11.9-10.6-11.9-5.75 0.03-10.1 4.98-10.6 11.9z"/>
   <path transform="translate(-714 -496)" d="m1123 542h-25.9c0.5 7.17 4.89 12.3 10.6 12.3a10.6 10.6 0 0 0 10.2-8.23h4.7a14.5 14.5 0 0 1-14.7 11.6c-9.22 0-15.6-7.3-15.6-16.9s6.37-16.9 15.6-16.9 15.1 7.05 15.1 16.6zm-25.9-3h21.2c-0.55-6.87-5-11.9-10.6-11.9-5.75 0.03-10.1 4.98-10.6 11.9z"/>
   <path transform="translate(-714 -496)" d="m1157 554v3.22h-12.7v-3.22h3.84l-9.65-14-6.62 5.19v8.85h3.81v3.22h-12.4v-3.22h4.14v-40h-4.14v-3.21h8.6v30.8l15.3-12.5h-3.9v-3.22h12.6v3.22h-3.89l-10.3 8.22 11.4 16.6z"/>
   <path transform="translate(-714 -496)" d="m783 510h-12.5v5.61h4.51v11.9a12.6 12.6 0 0 0-9.35-3.88c-8.28 0-14.3 7.33-14.3 17.4s6 17.4 14.3 17.4a12.7 12.7 0 0 0 9.35-3.83v2.58h11.9v-5.85h-3.9zm-15 42.1c-4.78 0-8.24-4.64-8.24-11s3.46-11 8.24-11a7 7 0 0 1 7 6.88v8.17a7 7 0 0 1-6.96 6.95z"/>
   <path transform="translate(-714 -496)" d="m819 525h-11.5v5.85h3.59v15a6.63 6.63 0 0 1-6.82 6.88c-3.47 0-5.46-2.44-5.46-6.7v-21h-11.7v5.85h3.78v17.1c0 5.32 3.23 10.7 10.4 10.7a13.7 13.7 0 0 0 9.79-4v2.72h11.8v-5.85h-3.91z"/>
   <path transform="translate(-714 -496)" d="m889 536c0-8.36-4.43-12.4-13.5-12.4s-14.3 4.14-14.3 11.1v1h7.77v-1c0-3.08 2.49-5.15 6.2-5.15 4 0 6 2.06 6 6.14v2.36h-6.32c-9.83 0-15 3.61-15 10.4 0 6.29 3.94 9.89 10.8 9.89a14.1 14.1 0 0 0 10.6-4.47v3.36h11.7v-6h-3.96zm-15.2 16.5c-3.69 0-5.89-1.81-5.89-4.84 0-3.54 2.77-5.33 8.24-5.33h4.9v5.32a7.36 7.36 0 0 1-7.25 4.85z"/>
   <polygon points="214 28.3 203 28.3 203 34.2 206 34.2 206 54.9 203 54.9 203 60.7 218 60.7 218 54.9 214 54.9"/>
   <path transform="translate(-714 -496)" d="m950 523c-9.68 0-16.4 7.17-16.4 17.4s6.76 17.4 16.4 17.4 16.4-7.17 16.4-17.4-6.76-17.4-16.4-17.4zm8.06 17.4c0 6.89-3.24 11.5-8.06 11.5s-8.05-4.74-8.05-11.5 3.24-11.5 8.05-11.5 8.06 4.64 8.06 11.5z"/>
   <path transform="translate(-714 -496)" d="m999 551v-17.1c0-6.29-4.29-10.7-10.4-10.7a12.3 12.3 0 0 0-9.81 4.22v-3h-11.8v5.91h3.89v20.6h-3.89v5.86h15.1v-5.85h-3.24v-15a6.69 6.69 0 0 1 6.82-6.88c3.47 0 5.46 2.46 5.46 6.75v15.1h-3.22v5.87h14.9v-5.85z"/>
   <polygon points="0 19.6 4.89 19.6 4.89 54.6 0 54.6 0 60.7 33 60.7 33 48 27 48 27 54.6 13.2 54.6 13.2 39.3 24.4 39.3 24.4 33.3 13.2 33.3 13.2 19.6 27 19.6 27 26.1 33 26.1 33 13.5 0 13.5"/>
   <path transform="translate(-714 -496)" d="m908 551c-3.72 0-4.22-1.54-4.22-3.05v-17.8h7.42v-5.85h-7.42v-9.78h-8v9.78h-4v5.85h4v19c0 3.91 1 8.4 9 8.4a21 21 0 0 0 6.28-0.9l0.27-0.1v-5.8l-0.5 0.09a21.9 21.9 0 0 1-2.83 0.19z"/>
   <path transform="translate(-714 -496)" d="m925 523a4.62 4.62 0 1 0-4.63-4.62 4.62 4.62 0 0 0 4.63 4.62z"/>
   <path transform="translate(-714 -496)" d="m841 552c-4.63 0-8-4.85-8-11.5s3.36-11.5 8-11.5c3.33 0 5.93 2.37 7 6.28h8.39c-1.31-7.49-7.22-12.3-15.4-12.3-9.64 0-16.4 7.17-16.4 17.4s6.74 17.4 16.4 17.4c8.26 0 14.2-4.85 15.4-12.4h-8.37c-1.03 4-3.72 6.53-7.04 6.53z"/>
   <polygon points="467 23.9 443 0 467 0"/>
   <path transform="translate(-714 -496)" d="M1167.4,543.52a6.88,6.88,0,0,1,3.31.87,6.17,6.17,0,0,1,2.52,2.49,6.75,6.75,0,0,1,0,6.72,6.3,6.3,0,0,1-2.49,2.5,6.82,6.82,0,0,1-6.7,0,6.3,6.3,0,0,1-2.49-2.5,6.72,6.72,0,0,1-.89-3.34,6.85,6.85,0,0,1,.9-3.38,6.23,6.23,0,0,1,2.52-2.49A6.91,6.91,0,0,1,1167.4,543.52Zm0,1.11a5.81,5.81,0,0,0-2.76.73,5.25,5.25,0,0,0-2.1,2.08,5.64,5.64,0,0,0-.76,2.82,5.55,5.55,0,0,0,.75,2.78,5.2,5.2,0,0,0,2.08,2.08,5.62,5.62,0,0,0,2.79.75,5.68,5.68,0,0,0,2.8-.75,5.18,5.18,0,0,0,2.07-2.08,5.54,5.54,0,0,0,.74-2.78,5.73,5.73,0,0,0-.75-2.82,5.19,5.19,0,0,0-2.1-2.08A5.81,5.81,0,0,0,1167.4,544.63Zm-3,9.35v-7.25h2.49a6.29,6.29,0,0,1,1.85.2,1.86,1.86,0,0,1,.91.7,1.92,1.92,0,0,1,.33,1.06,1.94,1.94,0,0,1-.56,1.39,2.27,2.27,0,0,1-1.51.66,1.77,1.77,0,0,1,.62.38,8.57,8.57,0,0,1,1.07,1.44l.88,1.42h-1.42l-.65-1.15a5.7,5.7,0,0,0-1.22-1.68,1.47,1.47,0,0,0-.94-.25h-.68V554Zm1.17-4.08H1167a2.28,2.28,0,0,0,1.38-.3,1,1,0,0,0,.37-.81,1,1,0,0,0-.17-.57,1.07,1.07,0,0,0-.5-.38,3.43,3.43,0,0,0-1.17-.13h-1.33Z"/>
</symbol>
<use xlink:href="#cvfa" transform="matrix(.993 0 0 1 2.17 -.0098)" width="100%" height="100%" style="fill:#467cfc"/>
</svg>
