<?xml version="1.0" encoding="utf-8"?>
<!-- Generator: Adobe Illustrator 22.0.1, SVG Export Plug-In . SVG Version: 6.00 Build 0)  -->
<svg version="1.1" id="Layer_1" xmlns="http://www.w3.org/2000/svg" xmlns:xlink="http://www.w3.org/1999/xlink" x="0px" y="0px"
	 viewBox="0 0 728.1 203.3" style="enable-background:new 0 0 728.1 203.3;" xml:space="preserve">
<style type="text/css">
	.st0{fill:#D52A28;}
	.st1{fill:#FFFFFF;}
</style>
<g>
	<path d="M107.9,78c-0.3,0-0.5,0-0.8,0s-0.5,0-0.8,0H82.3v43.4h24c0.2,0,0.5,0,0.7,0c0.2,0,0.5,0,0.7,0h0.8v-0.1
		c9.7-0.9,17.3-10.2,17.3-21.7c0-11.4-7.6-20.8-17.3-21.7v0H107.9z"/>
	<path d="M54.3,123.2V50c0,0,38.2,0,52,0s18.2,2.9,18.2,2.9l31.3-30.2c-15.7-11.3-35.1-18-55.9-18C47,4.7,4,47.7,4,100.7
		c0,21,6.7,40.4,18.1,56.1L54.3,123.2z"/>
	<path d="M177.2,43.7l-30.1,30c0,0,1.4,2.9,3.5,8.3c2.1,5.4,4.2,13.8,2.8,23.4s-4,21.1-13.6,30.9s-18.9,12.9-30.5,13.1
		c-11.6,0.2-37.8,0-37.8,0l-28.6,28.3c16,11.9,35.7,18.9,57.2,18.9c53,0,95.9-43,95.9-95.9C195.9,79.3,188.9,59.6,177.2,43.7z"/>
</g>
<g>
	<path d="M301.3,104.8h-44.2v37.7h-10.7V58.8h10.7v37.7h44.2V58.8h10.7v83.7h-10.7V104.8z"/>
	<path d="M394.7,100.2c-3,4-7.5,6.7-13.3,8.1c1.6,1,2.9,2.1,3.8,3.3c0.9,1.3,1.9,3.1,3,5.7l10.9,25.2h-10.9l-10.7-24.3
		c-1.2-2.8-2.7-4.7-4.4-5.7c-1.7-1-4.4-1.6-8.3-1.6h-17.7v31.6h-10.7V58.8h36.8c8.8,0,15.3,2.3,19.5,6.8c4.2,4.5,6.4,10.9,6.4,19.2
		C399.3,91.1,397.8,96.2,394.7,100.2z M388.6,84.8c0-11.7-5.6-17.5-16.8-17.5h-24.6v35.4h23.1C382.6,102.6,388.6,96.7,388.6,84.8z"
		/>
	<path d="M427.2,58.8h37.4c13.3,0,23.5,3.4,30.4,10.1c6.9,6.7,10.3,17.5,10.3,32.3c0,14.1-3.4,24.5-10.3,31.3
		c-6.9,6.7-17,10.1-30.4,10.1h-37.4V58.8z M461.6,123.8c4.3,0,7.8-0.6,10.5-1.9c2.7-1.3,4.7-3.5,6.2-6.8s2.1-7.9,2.1-14
		c0-6.2-0.6-10.9-1.9-14.4c-1.3-3.4-3.3-5.8-6-7.2c-2.7-1.4-6.3-2.1-10.9-2.1h-9.9v46.3H461.6z"/>
	<path d="M521,58.8h24.4v83.7H521V58.8z"/>
	<path d="M558.4,58.8h25.5l19.5,55.4l19.5-55.4h25.6l-32.1,83.7h-25.9L558.4,58.8z"/>
	<path d="M658.9,58.8h63.4v18.7h-39v13.7h34.2v19h-34.2v13.7h39v18.7h-63.4V58.8z"/>
</g>
</svg>
