<?xml version="1.0" encoding="UTF-8"?>
<svg id="Layer_1" data-name="Layer 1" xmlns="http://www.w3.org/2000/svg" viewBox="0 0 212.78 95.98">
  <defs>
    <style>
      .cls-1 {
        fill: #026ea1;
      }

      .cls-2 {
        fill: #0bafe6;
      }
    </style>
  </defs>
  <path class="cls-2" d="m174.82,68.57c.02-.46.49-.47.49-.47l33.4-.21s.5-.02.55.51c.33,3.98,5.15,6.12,2.95,14.17-1.91,6.99-12.38,7.25-15.02,8.88-4.22,2.62-4.21,4.49-5.02,4.5s-.82-1.87-5.06-4.45c-2.65-1.61-13.13-1.76-15.1-8.74-2.27-8.03,2.69-10.21,2.82-14.2h0Zm34.11-2.88l-33.88.16s-.5.02-.66-.43c-.78-2.22-2.63-2.91-2.53-3.35.11-.49,1.36-1.59,2.8-3.6,2.33-3.24,2.08-3.18,3.15-2.86,1.07.33,3.91,1.62,8.29.46,4.39-1.16,4.73-3.29,5.85-3.3s1.49,2.12,5.88,3.24c4.4,1.12,7.22-.2,8.29-.54,1.07-.34.82-.39,3.18,2.83,1.47,2,2.72,3.09,2.84,3.58.1.43-1.55,1.21-2.48,3.39-.2.46-.75.43-.75.43h0Z"/>
  <g>
    <path class="cls-1" d="m0,.74h19.77c5.5,0,9.76,1.54,12.6,4.39,2.41,2.41,3.71,5.81,3.71,9.88v.12c0,6.98-3.77,11.37-9.27,13.4l10.56,15.44h-11.12l-9.26-13.84h-7.47v13.84H0V.74Zm19.15,21c4.63,0,7.29-2.47,7.29-6.12v-.12c0-4.08-2.84-6.18-7.47-6.18h-9.45v12.42h9.64Z"/>
    <path class="cls-1" d="m41.01,22.48v-.12c0-12.29,9.7-22.36,23.04-22.36s22.92,9.94,22.92,22.24v.12c0,12.29-9.7,22.36-23.04,22.36s-22.92-9.94-22.92-22.24Zm36.01,0v-.12c0-7.41-5.44-13.59-13.09-13.59s-12.97,6.05-12.97,13.46v.12c0,7.41,5.44,13.59,13.09,13.59s12.97-6.05,12.97-13.47Z"/>
    <path class="cls-1" d="m93.02,25.45V.74h9.51v24.46c0,7.04,3.52,10.69,9.33,10.69s9.33-3.52,9.33-10.38V.74h9.51v24.4c0,13.09-7.35,19.52-18.96,19.52s-18.72-6.49-18.72-19.21Z"/>
    <path class="cls-1" d="m148.74,9.51h-13.16V.74h35.83v8.77h-13.16v34.47h-9.51V9.51Z"/>
    <path class="cls-1" d="m176.97.74h32.61v8.46h-23.16v8.77h20.38v8.46h-20.38v9.08h23.47v8.46h-32.92V.74Z"/>
    <path class="cls-1" d="m0,52.74h32.92v8.65H9.51v9.2h20.63v8.65H9.51v16.74H0v-43.24Z"/>
    <path class="cls-1" d="m39.22,52.74h9.51v43.24h-9.51v-43.24Z"/>
    <path class="cls-1" d="m57.81,52.74h32.92v8.65h-23.41v9.2h20.63v8.65h-20.63v16.74h-9.51v-43.24Z"/>
    <path class="cls-1" d="m106.67,61.51h-13.16v-8.77h35.83v8.77h-13.16v34.47h-9.51v-34.47Z"/>
    <path class="cls-1" d="m147.07,78.93l-16.62-26.19h11.12l10.32,17.36,10.5-17.36h10.81l-16.62,26v17.23h-9.51v-17.05Z"/>
  </g>
</svg>