<?xml version="1.0" encoding="UTF-8"?><svg id="a" xmlns="http://www.w3.org/2000/svg" viewBox="0 0 1016.9974 365.8313"><path d="M998.9936,163.9064H61.8636L195.0436,30.7264c7.0312-7.0273,7.0312-18.426,0-25.453-7.0312-7.0312-18.422-7.0312-25.453,0L7.6406,167.2234c-4.6133,3.2578-7.6406,8.6094-7.6406,14.684,0,.0938.0273.1797.0273.2695-.0039.1953.0547.3828.0586.582.082,1.7617.4258,3.4375.9805,5.0312.3242,1.0117.793,1.9219,1.2969,2.875.4531.8086.957,1.5742,1.5273,2.3008.5078.6758.7656,1.4648,1.3828,2.082l165.51,165.51c3.5156,3.5156,8.1211,5.2734,12.727,5.2734s9.2109-1.7578,12.727-5.2734c7.0312-7.0312,7.0312-18.422,0-25.453L61.0474,199.9049h937.95c9.9375,0,18-8.0586,18-18-.0039-9.9414-8.0664-18-18.004-18l.0002.0015Z" fill="#252525"/></svg>