<?xml version="1.0" encoding="UTF-8"?><svg id="a" xmlns="http://www.w3.org/2000/svg" viewBox="0 0 299.423 115.597"><path d="M299.168,37.693c0,5.4-1.29,10.95-5.61,14.62-4.25,3.6-9.93,5.11-15.41,5.11-6.84,0-13.54-2.31-19.08-6.19l6.04-11.38c3.53,3.1,7.71,5.62,12.54,5.62,3.31,0,6.84-1.66,6.84-5.48,0-3.95-5.54-5.32-8.57-6.19-8.86-2.52-14.69-4.82-14.69-15.33,0-11.02,7.85-18.22,18.72-18.22,5.48,0,12.17,1.73,16.99,4.46l-5.61,10.95c-2.6-2.16-5.9-3.6-9.36-3.6-2.59,0-6.05,1.51-6.05,4.53,0,3.17,3.82,4.4,6.26,5.19l3.6,1.08c7.57,2.23,13.39,6.05,13.39,14.83Z" fill="#231f1f"/><path d="M295.978,70.233l-4.93,2.95c-1.84-3.08-4.2-4.66-7.95-4.66-3.94,0-8.27,2.69-8.27,7.03,0,3.87,3.81,5.91,6.9,7.09l3.54,1.38c7.03,2.76,12.28,6.63,12.28,14.91,0,8.99-6.96,15.43-15.82,15.43-8.02,0-14.26-5.91-15.3-13.86l6.23-1.31c-.06,5.45,4.27,9.39,9.59,9.39s9.13-4.47,9.13-9.65c0-5.32-4.27-7.62-8.54-9.4l-3.41-1.44c-5.65-2.43-10.77-5.65-10.77-12.54,0-8.01,7.09-12.81,14.57-12.81,5.52,0,10.05,2.69,12.75,7.49Z" fill="#231f1f"/><path d="M258.218,70.233l-4.93,2.95c-1.84-3.08-4.2-4.66-7.95-4.66-3.94,0-8.27,2.69-8.27,7.03,0,3.87,3.8,5.91,6.89,7.09l3.55,1.38c7.02,2.76,12.28,6.63,12.28,14.91,0,8.99-6.96,15.43-15.83,15.43-8.01,0-14.25-5.91-15.3-13.86l6.24-1.31c-.06,5.45,4.27,9.39,9.59,9.39s9.13-4.47,9.13-9.65c0-5.32-4.28-7.62-8.54-9.4l-3.41-1.44c-5.65-2.43-10.77-5.65-10.77-12.54,0-8.01,7.09-12.81,14.57-12.81,5.52,0,10.05,2.69,12.75,7.49Z" fill="#231f1f"/><polygon points="256.408 1.693 256.408 13.643 244.738 13.643 244.738 55.983 230.628 55.983 230.628 13.643 218.958 13.643 218.958 1.693 256.408 1.693" fill="#231f1f"/><polygon points="221.168 107.663 221.168 113.313 194.578 113.313 194.578 63.793 221.168 63.793 221.168 69.443 200.748 69.443 200.748 83.293 220.578 83.293 220.578 88.943 200.748 88.943 200.748 107.663 221.168 107.663" fill="#231f1f"/><rect x="199.818" y="1.693" width="14.1" height="54.29" fill="#231f1f"/><path d="M178.928,33.733l17.06,22.25h-17.56l-13.32-20.88h-.15v20.88h-14.11V1.693h21.09c10.74,0,18.87,5.11,18.87,16.71,0,7.48-4.17,13.96-11.88,15.33ZM176.128,19.263c0-5.91-5.19-6.77-9.8-6.77h-1.37v13.54h1.37c4.61,0,9.8-.87,9.8-6.77Z" fill="#231f1f"/><polygon points="183.278 63.793 183.278 115.343 146.108 76.403 146.108 113.313 139.938 113.313 139.938 61.433 177.108 100.373 177.108 63.793 183.278 63.793" fill="#231f1f"/><rect x="127.518" y="1.693" width="14.12" height="54.29" fill="#231f1f"/><rect x="122.598" y="63.793" width="6.17" height="49.52" fill="#231f1f"/><path d="M121.258,19.543c0,12.82-6.91,18.44-19.23,18.44h-7.99v18h-14.11V1.693h21.6c11.67,0,19.73,5.4,19.73,17.85ZM106.568,19.983c0-6.84-4.68-6.91-10.15-6.91h-2.38v13.53h2.38c5.11,0,10.15,0,10.15-6.62Z" fill="#231f1f"/><path d="M111.958,70.233l-4.93,2.95c-1.84-3.08-4.2-4.66-7.94-4.66-3.95,0-8.28,2.69-8.28,7.03,0,3.87,3.81,5.91,6.9,7.09l3.54,1.38c7.03,2.76,12.29,6.63,12.29,14.91,0,8.99-6.96,15.43-15.83,15.43-8.01,0-14.25-5.91-15.3-13.86l6.23-1.31c-.06,5.45,4.28,9.39,9.59,9.39,5.32,0,9.13-4.47,9.13-9.65,0-5.32-4.27-7.62-8.53-9.4l-3.42-1.44c-5.65-2.43-10.77-5.65-10.77-12.54,0-8.01,7.09-12.81,14.58-12.81,5.52,0,10.05,2.69,12.74,7.49Z" fill="#231f1f"/><path d="M73.998,63.793v31.32c0,10.91-6.76,19.25-18.13,19.25-11.36,0-18.12-8.34-18.12-19.25v-31.32h6.17v29.22c0,8.08,2.43,15.57,11.95,15.57,9.53,0,11.96-7.49,11.96-15.57v-29.22h6.17Z" fill="#231f1f"/><path d="M73.228,37.693c0,5.4-1.3,10.95-5.62,14.62-4.24,3.6-9.93,5.11-15.4,5.11-6.84,0-13.54-2.31-19.09-6.19l6.05-11.38c3.53,3.1,7.7,5.62,12.53,5.62,3.32,0,6.84-1.66,6.84-5.48,0-3.95-5.54-5.32-8.57-6.19-8.85-2.52-14.69-4.82-14.69-15.33C35.278,7.453,43.128.253,53.998.253c5.48,0,12.17,1.73,17,4.46l-5.62,10.95c-2.59-2.16-5.9-3.6-9.36-3.6-2.59,0-6.05,1.51-6.05,4.53,0,3.17,3.82,4.4,6.27,5.19l3.6,1.08c7.56,2.23,13.39,6.05,13.39,14.83Z" fill="#231f1f"/><path d="M19.298,86.913c5.84,1.05,9.91,6.76,9.91,12.54,0,9.92-8.47,13.86-17.21,13.86H.448v-49.52h6.04c9.33,0,18.12,2.43,18.12,13.6,0,3.61-1.97,7.81-5.31,9.39v.13ZM11.348,107.793c5.71,0,11.69-1.71,11.69-8.74,0-6.95-7.09-8.4-12.61-8.4h-3.81v17.14h4.73ZM18.828,77.453c0-6.96-4.72-8.14-10.5-8.14h-1.71v16.42h1.58c5.84,0,10.63-1.19,10.63-8.28Z" fill="#231f1f"/><polygon points="25.308 46.843 25.308 49.963 3.108 49.963 3.108 55.913 .248 55.913 .248 40.893 3.108 40.893 3.108 46.843 25.308 46.843" fill="#231f1f"/><polygon points="25.308 2.543 25.308 16.003 .248 16.003 .248 2.543 3.108 2.543 3.108 12.883 10.118 12.883 10.118 2.843 12.978 2.843 12.978 12.883 22.448 12.883 22.448 2.543 25.308 2.543" fill="#231f1f"/><polygon points="13.278 23.643 13.278 35.583 25.308 35.583 25.308 38.703 .248 38.703 .248 35.583 10.348 35.583 10.348 23.643 .248 23.643 .248 20.523 25.308 20.523 25.308 23.643 13.278 23.643" fill="#231f1f"/></svg>